<?xml version="1.0" encoding="UTF-8" standalone="no"?>
<!-- Created with Inkscape (http://www.inkscape.org/) -->

<svg
   xmlns:dc="http://purl.org/dc/elements/1.1/"
   xmlns:cc="http://creativecommons.org/ns#"
   xmlns:rdf="http://www.w3.org/1999/02/22-rdf-syntax-ns#"
   xmlns:svg="http://www.w3.org/2000/svg"
   xmlns="http://www.w3.org/2000/svg"
   xmlns:sodipodi="http://sodipodi.sourceforge.net/DTD/sodipodi-0.dtd"
   xmlns:inkscape="http://www.inkscape.org/namespaces/inkscape"
   width="256"
   height="256"
   viewBox="0 0 67.733331 67.733331"
   version="1.1"
   id="svg8"
   inkscape:version="0.92.4 (5da689c313, 2019-01-14)"
   sodipodi:docname="aggc.svg"
   inkscape:export-filename="C:\Users\Toliak\Documents\IdeaProjects\HypeWear\src\main\resources\assets\hypewear\textures\models\armor\.src\aggc.png"
   inkscape:export-xdpi="96"
   inkscape:export-ydpi="96">
  <defs
     id="defs2">
    <inkscape:path-effect
       effect="lattice2"
       gridpoint0="-0.68191772,235.77651"
       gridpoint1="67.031915,235.77651"
       gridpoint2="-0.68191772,288.22601"
       gridpoint3="67.031915,288.22601"
       gridpoint4="16.24654,235.77651"
       gridpoint5="50.103457,235.77651"
       gridpoint6="16.24654,288.22601"
       gridpoint7="50.103457,288.22601"
       gridpoint8x9="33.042707,234.71818"
       gridpoint10x11="33.571874,278.43643"
       gridpoint12="-0.68191772,248.88888"
       gridpoint13="67.031915,248.88888"
       gridpoint14="-0.68191772,275.11363"
       gridpoint15="67.031915,275.11363"
       gridpoint16="15.717373,245.4493"
       gridpoint17="51.029499,259.86909"
       gridpoint18="16.907998,272.20321"
       gridpoint19="50.103457,275.11363"
       gridpoint20x21="35.027082,250.2118"
       gridpoint22x23="33.571874,272.60009"
       gridpoint24x26="-0.68191772,262.00126"
       gridpoint25x27="67.031915,262.00126"
       gridpoint28x30="14.526748,256.97418"
       gridpoint29x31="49.309707,267.42522"
       gridpoint32x33x34x35="34.894791,256.44501"
       id="path-effect3889"
       is_visible="true"
       horizontal_mirror="false"
       vertical_mirror="false"
       live_update="true" />
    <inkscape:path-effect
       effect="lattice2"
       gridpoint0="7.4448202,232.50214"
       gridpoint1="63.710918,235.86974"
       gridpoint2="8.9415295,289.06858"
       gridpoint3="62.962563,288.60086"
       gridpoint4="26.37565,237.17936"
       gridpoint5="50.766925,237.17936"
       gridpoint6="26.37565,288.60086"
       gridpoint7="50.766925,288.60086"
       gridpoint8x9="38.571287,237.17936"
       gridpoint10x11="38.571287,288.60086"
       gridpoint12="4.6384902,250.59601"
       gridpoint13="62.214208,248.16385"
       gridpoint14="14.180012,275.74549"
       gridpoint15="59.22079,279.48726"
       gridpoint16="29.556158,246.38651"
       gridpoint17="56.940851,251.15727"
       gridpoint18="27.778815,270.97473"
       gridpoint19="52.918445,274.06169"
       gridpoint20x21="43.622681,244.79626"
       gridpoint22x23="41.00344,273.96815"
       gridpoint24x26="7.9125418,265.69644"
       gridpoint25x27="61.933575,264.38682"
       gridpoint28x30="28.807803,259.7096"
       gridpoint29x31="50.766925,262.89011"
       gridpoint32x33x34x35="42.31306,260.64505"
       id="path-effect3772"
       is_visible="true"
       horizontal_mirror="false"
       vertical_mirror="false"
       live_update="true" />
    <inkscape:path-effect
       effect="perspective-envelope"
       up_left_point="16.18,237.17936"
       up_right_point="62.962563,237.17936"
       down_left_point="14.180012,288.60086"
       down_right_point="62.962563,288.60086"
       id="path-effect3770"
       is_visible="true"
       deform_type="perspective"
       horizontal_mirror="false"
       vertical_mirror="false"
       overflow_perspective="false" />
  </defs>
  <sodipodi:namedview
     id="base"
     pagecolor="#ffffff"
     bordercolor="#666666"
     borderopacity="1.0"
     inkscape:pageopacity="0.0"
     inkscape:pageshadow="2"
     inkscape:zoom="2"
     inkscape:cx="55.176237"
     inkscape:cy="163.26221"
     inkscape:document-units="px"
     inkscape:current-layer="layer1"
     showgrid="false"
     units="px"
     inkscape:window-width="1920"
     inkscape:window-height="1027"
     inkscape:window-x="-8"
     inkscape:window-y="-8"
     inkscape:window-maximized="1"
     inkscape:pagecheckerboard="true" />
  <metadata
     id="metadata5">
    <rdf:RDF>
      <cc:Work
         rdf:about="">
        <dc:format>image/svg+xml</dc:format>
        <dc:type
           rdf:resource="http://purl.org/dc/dcmitype/StillImage" />
        <dc:title></dc:title>
      </cc:Work>
    </rdf:RDF>
  </metadata>
  <g
     inkscape:label="Layer 1"
     inkscape:groupmode="layer"
     id="layer1"
     transform="translate(0,-229.26667)">
    <g
       aria-label="ANTI
GRIEFER
GRIEFER
CLUB"
       style="font-style:normal;font-weight:normal;font-size:10.58333302px;line-height:13.22916603px;font-family:sans-serif;letter-spacing:0px;word-spacing:0px;fill:#ffffff;fill-opacity:1;stroke:none;stroke-width:0.26458332"
       id="text3776"
       inkscape:path-effect="#path-effect3889"
       transform="matrix(0.97069469,0,0,1.2686827,1.6998077,-68.22931)">
      <path
         d="m 10.783393,244.34409 c 0.08205,0.1424 0.133458,0.25661 0.154157,0.34476 0.02067,0.088 -0.0065,0.16445 -0.08161,0.23024 -0.07506,0.0613 -0.208363,0.11881 -0.399373,0.17287 -0.191281,0.0586 -0.453222,0.12816 -0.7864443,0.21057 -0.3486723,0.0862 -0.6151455,0.1498 -0.8133162,0.19118 -0.1895035,0.0438 -0.3340031,0.0697 -0.4351743,0.077 -0.1009234,0.002 -0.1712484,-0.0106 -0.2112679,-0.039 -0.039997,-0.0283 -0.073101,-0.0707 -0.099347,-0.12704 -0.2756339,-0.55302 -0.8508579,-1.72546 -0.8508579,-1.72546 -1.6035366,0.32974 -4.7535849,1.03767 -4.7535849,1.03767 -0.2617363,0.80824 -0.8065649,2.46021 -0.8065649,2.46021 -0.026034,0.0918 -0.061337,0.17476 -0.1058488,0.24881 -0.038174,0.066 -0.1044505,0.1321 -0.1985319,0.19829 -0.087717,0.0581 -0.2159425,0.12031 -0.383634,0.18631 -0.1612136,0.0639 -0.37542433,0.13904 -0.63914177,0.22401 -0.28269176,0.0911 -0.50093266,0.15212 -0.65889904,0.18381 -0.15762839,0.0316 -0.26604029,0.0216 -0.32635244,-0.0299 -0.0602149,-0.0579 -0.0813658,-0.15755 -0.0632579,-0.2982 0.0180771,-0.14039 0.063416,-0.33464 0.13631535,-0.57983 0.72978593,-2.40125 1.44474565,-4.53038 2.3886187,-7.12718 0.8165493,-2.24651 1.4621301,-3.98281 1.4621301,-3.98281 0.038591,-0.10435 0.083583,-0.18797 0.1349414,-0.25042 0.051371,-0.0686 0.1315031,-0.11953 0.2404872,-0.153 0.1154217,-0.0398 0.2723513,-0.0653 0.4710315,-0.0771 0.1988095,-0.0179 0.461123,-0.0317 0.7879689,-0.0421 0.3783221,-0.0121 0.678473,-0.0165 0.9031013,-0.0123 0.22417,-0.002 0.3972089,0.013 0.5192928,0.0443 0.1283574,0.0252 0.2185634,0.0697 0.2705314,0.13359 0.058367,0.0636 0.1073968,0.15131 0.146937,0.26278 1.3647478,3.44927 2.5838491,5.90513 3.9976906,8.23795 z m -5.8650565,-6.42183 c 0.00678,0.009 -0.00968,5.5e-4 -0.00968,5.5e-4 -0.5859251,1.6323 -1.8206299,4.9208 -1.8206299,4.9208 1.1899565,-0.19998 3.5842242,-0.59904 3.5842242,-0.59904 C 6.0803485,240.90592 5.508,239.49103 4.9183365,237.92226 Z"
         style="font-style:normal;font-variant:normal;font-weight:bold;font-stretch:normal;font-size:19.7555542px;line-height:0;font-family:Calibri;-inkscape-font-specification:'Calibri Bold';fill:#ffffff;stroke-width:0.26458332"
         id="path3844"
         inkscape:connector-curvature="0"
         inkscape:original-d="m 10.659124,247.37132 q 0.115755,0.34726 0.144694,0.54983 0.02894,0.20258 -0.07717,0.30868 -0.106109,0.0965 -0.376205,0.11576 -0.270095,0.0289 -0.7427622,0.0289 -0.4919596,0 -0.7717013,-0.0193 -0.2700955,-0.01 -0.4147895,-0.0482 -0.144694,-0.0482 -0.2025716,-0.1254 -0.057878,-0.0772 -0.096463,-0.20257 L 7.2829305,245.471 H 2.5948449 l -0.7909939,2.44051 q -0.038585,0.13504 -0.1061089,0.23151 -0.057878,0.0868 -0.2025716,0.14469 -0.1350477,0.0482 -0.3954969,0.0675 -0.25080296,0.0193 -0.66559243,0.0193 -0.44372827,0 -0.69453121,-0.0289 -0.25080293,-0.0289 -0.3472656,-0.13505 -0.0964627,-0.11575 -0.0675239,-0.31833 0.0289388,-0.20257 0.144694,-0.54019 L 3.3183149,236.27813 q 0.057878,-0.16399 0.1350477,-0.26045 0.07717,-0.10611 0.2411567,-0.15434 0.1736328,-0.0579 0.4726671,-0.0675 0.2990342,-0.0193 0.7909938,-0.0193 0.5691298,0 0.9067491,0.0193 0.3376194,0.01 0.5208984,0.0675 0.1929254,0.0482 0.2700955,0.15434 0.086816,0.10611 0.144694,0.28939 z m -5.7298826,-9.15431 h -0.00965 l -1.7652668,5.30545 h 3.5401799 z" />
      <path
         d="m 23.653524,242.94379 c 0.0092,0.0719 -0.01021,0.13573 -0.05822,0.19198 -0.04801,0.0563 -0.117962,0.10337 -0.209825,0.1418 -0.08498,0.0383 -0.19188,0.068 -0.320632,0.0893 -0.122199,0.0181 -0.248909,0.029 -0.379909,0.0326 -0.374998,0.0154 -1.159978,0.0456 -1.159978,0.0456 -0.242138,0.0122 -0.453808,0.0133 -0.635903,0.002 -0.175,-0.012 -0.341163,-0.0419 -0.498403,-0.0907 -0.150566,-0.0525 -0.299362,-0.12518 -0.446142,-0.21887 -0.146702,-0.0968 -0.314275,-0.22406 -0.500212,-0.38259 -0.657067,-0.52864 -1.419224,-1.17195 -2.219638,-1.95173 -0.735148,-0.71619 -1.318378,-1.38165 -1.318378,-1.38165 -0.202115,-0.23414 -0.408669,-0.49437 -0.618587,-0.78368 -0.210404,-0.29437 -0.399815,-0.59112 -0.568736,-0.88879 0.0041,0.008 -0.01958,8e-4 -0.01958,8e-4 0.04894,0.36967 0.09018,0.7246 0.123642,1.06726 0.03317,0.33786 0.05931,0.67587 0.07806,1.01407 0.09429,1.51333 0.182426,4.09493 0.182426,4.09493 0.0012,0.0383 -0.01842,0.0759 -0.05896,0.11334 -0.03364,0.0363 -0.09851,0.0739 -0.194702,0.1134 -0.08943,0.0345 -0.213396,0.0712 -0.372197,0.111 -0.158864,0.0398 -0.362424,0.0823 -0.611181,0.12872 -0.242229,0.0452 -0.441402,0.0777 -0.600684,0.0966 -0.15892,0.0188 -0.28285,0.0271 -0.372782,0.0243 -0.08986,-0.007 -0.152101,-0.0234 -0.186926,-0.0498 -0.0348,-0.0263 -0.05244,-0.0603 -0.05297,-0.10185 -0.01067,-1.30338 -0.04086,-2.90072 -0.103677,-4.71837 -0.05845,-1.69147 -0.142425,-3.39244 -0.142425,-3.39244 -0.01273,-0.27013 0.06397,-0.4814 0.229867,-0.62683 0.172277,-0.15194 0.385166,-0.23551 0.641179,-0.2478 0.461468,-0.0126 1.35254,-0.0647 1.35254,-0.0647 0.24307,-0.0116 0.448996,1.9e-4 0.618444,0.0356 0.169158,0.0288 0.320857,0.0865 0.455893,0.17205 0.141447,0.0852 0.2759,0.20668 0.404022,0.36203 0.127721,0.14948 0.261339,0.33448 0.401873,0.55174 0.931738,1.32199 2.795083,3.39422 2.795083,3.39422 0.165183,0.17609 0.327259,0.34565 0.485826,0.50905 0.164845,0.15926 0.323635,0.31696 0.475871,0.47288 0.151761,0.15206 0.300462,0.29918 0.445326,0.44129 0.144971,0.1422 0.286706,0.28159 0.42505,0.41846 0.01457,0.005 0.01014,-2.4e-4 0.01014,-2.4e-4 -0.04846,-0.24394 -0.09612,-0.50617 -0.143119,-0.78959 -0.04032,-0.28416 -0.07724,-0.56553 -0.110665,-0.84544 -0.06786,-0.61191 -0.188642,-1.62108 -0.303547,-2.62332 -0.11437,-0.99758 -0.220569,-1.97725 -0.220569,-1.97725 -0.0067,-0.0633 0.0065,-0.12141 0.03954,-0.17421 0.03303,-0.0528 0.09233,-0.10059 0.177845,-0.1431 0.08545,-0.0424 0.201128,-0.0734 0.346939,-0.0923 0.145045,-0.0255 0.332932,-0.0427 0.563294,-0.0514 0.217692,-0.008 0.401159,-0.005 0.550765,0.01 0.148796,0.008 0.263877,0.0311 0.345341,0.0688 0.08805,0.0368 0.151161,0.0815 0.189415,0.13338 0.03825,0.0519 0.06126,0.11059 0.06895,0.1757 0.447539,3.78736 0.78908,5.76597 1.021215,7.58416 z"
         style="font-style:normal;font-variant:normal;font-weight:bold;font-stretch:normal;font-size:19.7555542px;line-height:0;font-family:Calibri;-inkscape-font-specification:'Calibri Bold';fill:#ffffff;stroke-width:0.26458332"
         id="path3846"
         inkscape:connector-curvature="0"
         inkscape:original-d="m 22.688018,247.42919 q 0,0.22187 -0.07717,0.3955 -0.07717,0.17363 -0.212218,0.28939 -0.125401,0.11575 -0.30868,0.17363 -0.173633,0.0482 -0.356912,0.0482 h -1.080382 q -0.337619,0 -0.588422,-0.0675 -0.241157,-0.0675 -0.453375,-0.24116 -0.202571,-0.18328 -0.395497,-0.48231 -0.192925,-0.30868 -0.434082,-0.79099 l -3.106098,-5.836 q -0.270095,-0.52089 -0.549837,-1.11896 -0.279742,-0.60772 -0.501606,-1.17685 h -0.01929 q 0.03858,0.69453 0.05788,1.38906 0.01929,0.68489 0.01929,1.41801 v 6.53052 q 0,0.0965 -0.05788,0.17363 -0.04823,0.0772 -0.183279,0.13505 -0.125401,0.0482 -0.347265,0.0772 -0.221865,0.0289 -0.56913,0.0289 -0.337619,0 -0.559484,-0.0289 -0.221864,-0.0289 -0.347265,-0.0772 -0.125402,-0.0579 -0.173633,-0.13505 -0.04823,-0.0772 -0.04823,-0.17363 v -11.21861 q 0,-0.45337 0.260449,-0.67524 0.270095,-0.23151 0.655946,-0.23151 h 1.360124 q 0.366558,0 0.617361,0.0675 0.250803,0.0579 0.443728,0.20257 0.202572,0.14469 0.376204,0.40514 0.173633,0.2508 0.356912,0.62701 l 2.430859,4.56268 q 0.212218,0.41479 0.41479,0.81993 0.212218,0.3955 0.405143,0.80064 0.192925,0.3955 0.376204,0.78135 0.18328,0.38585 0.356912,0.7717 h 0.0096 q -0.02894,-0.67524 -0.04823,-1.40835 -0.0096,-0.73312 -0.0096,-1.39871 v -5.85528 q 0,-0.0965 0.05788,-0.17364 0.05788,-0.0772 0.192925,-0.13504 0.135048,-0.0579 0.356912,-0.0772 0.221864,-0.0289 0.56913,-0.0289 0.327973,0 0.549837,0.0289 0.221864,0.0193 0.337619,0.0772 0.125402,0.0579 0.173633,0.13504 0.04823,0.0772 0.04823,0.17364 z" />
      <path
         d="m 33.752996,236.0114 c 0.03024,0.20929 0.0464,0.38468 0.04863,0.52969 0.0077,0.13819 0.0019,0.24966 -0.01712,0.3362 -0.02004,0.0798 -0.05289,0.1382 -0.09844,0.17612 -0.03908,0.0381 -0.08772,0.056 -0.145773,0.0539 -1.033923,-0.0274 -3.139444,-0.0947 -3.139444,-0.0947 0.302301,1.93276 0.556054,3.30838 0.827605,4.74777 0.22808,1.20897 0.367842,1.9977 0.367842,1.9977 0.0055,0.0314 -0.01287,0.056 -0.05513,0.0742 -0.03564,0.0191 -0.102004,0.0291 -0.199346,0.0304 -0.09755,10e-4 -0.231695,-0.006 -0.404049,-0.0198 -0.166195,-0.0133 -0.374592,-0.0363 -0.630027,-0.0675 -0.255164,-0.0312 -0.469947,-0.0601 -0.646716,-0.0884 -0.169775,-0.0275 -0.306042,-0.0535 -0.409744,-0.0789 -0.103545,-0.0254 -0.18085,-0.0522 -0.232056,-0.081 -0.04444,-0.0281 -0.06917,-0.0573 -0.07423,-0.0877 -0.126419,-0.78952 -0.367965,-2.05671 -0.616975,-3.47307 -0.244677,-1.39171 -0.490065,-3.00062 -0.490065,-3.00062 -1.038015,-0.004 -3.150407,-0.0181 -3.150407,-0.0181 -0.06484,8e-5 -0.122411,-0.017 -0.17248,-0.0514 -0.05008,-0.0344 -0.09607,-0.0863 -0.137865,-0.1561 -0.04258,-0.0757 -0.08149,-0.17266 -0.116726,-0.2924 -0.02957,-0.12583 -0.05597,-0.27796 -0.07937,-0.45943 -0.02422,-0.18783 -0.03863,-0.35239 -0.04307,-0.49007 0.002,-0.1379 0.01394,-0.2489 0.03598,-0.33065 0.02122,-0.0885 0.05207,-0.15117 0.09273,-0.18676 0.03976,-0.0423 0.09166,-0.0648 0.155767,-0.0666 2.934413,-0.0744 8.782677,-0.12511 8.782677,-0.12511 0.05787,1e-4 0.112512,0.0238 0.163889,0.0711 0.05698,0.0388 0.108363,0.10918 0.154439,0.20976 0.04499,0.0928 0.08504,0.21944 0.120148,0.37756 0.04153,0.15812 0.07803,0.34737 0.109325,0.56397 0,0 -2e-6,0 -2e-6,0 z"
         style="font-style:normal;font-variant:normal;font-weight:bold;font-stretch:normal;font-size:19.7555542px;line-height:0;font-family:Calibri;-inkscape-font-specification:'Calibri Bold';fill:#ffffff;stroke-width:0.26458332"
         id="path3848"
         inkscape:connector-curvature="0"
         inkscape:original-d="m 33.704055,236.87618 q 0,0.27974 -0.02894,0.48231 -0.01929,0.19293 -0.06752,0.31833 -0.04823,0.11575 -0.125402,0.17363 -0.06752,0.0579 -0.15434,0.0579 h -3.12539 v 10.06105 q 0,0.0965 -0.06752,0.17364 -0.05788,0.0772 -0.202572,0.1254 -0.144694,0.0482 -0.395497,0.0772 -0.241157,0.0289 -0.607715,0.0289 -0.366558,0 -0.617361,-0.0289 -0.241156,-0.0289 -0.38585,-0.0772 -0.144694,-0.0482 -0.212218,-0.1254 -0.05788,-0.0772 -0.05788,-0.17364 v -10.06105 h -3.12539 q -0.09646,0 -0.163987,-0.0579 -0.06752,-0.0579 -0.115755,-0.17363 -0.04823,-0.1254 -0.07717,-0.31833 -0.01929,-0.20257 -0.01929,-0.48231 0,-0.28939 0.01929,-0.49196 0.02894,-0.20257 0.07717,-0.31833 0.04823,-0.1254 0.115755,-0.17363 0.06752,-0.0579 0.163987,-0.0579 h 8.797395 q 0.08682,0 0.15434,0.0579 0.07717,0.0482 0.125402,0.17363 0.04823,0.11576 0.06752,0.31833 0.02894,0.20257 0.02894,0.49196 z" />
      <path
         d="m 39.23157,245.35957 c 0.0058,0.0386 -0.01131,0.0672 -0.05129,0.0858 -0.03364,0.0203 -0.09675,0.0269 -0.189517,0.0201 -0.09289,-0.007 -0.217869,-0.0262 -0.375982,-0.0575 -0.158619,-0.0315 -0.361113,-0.0798 -0.611787,-0.14443 -0.243623,-0.0628 -0.450219,-0.12009 -0.619243,-0.17234 -0.162665,-0.0507 -0.293798,-0.0962 -0.393489,-0.13728 -0.09964,-0.041 -0.174414,-0.0808 -0.224264,-0.11969 -0.04339,-0.0374 -0.06802,-0.0737 -0.07388,-0.10911 -0.173799,-1.07947 -0.512744,-2.87551 -0.865016,-4.97718 -0.346004,-2.06427 -0.691269,-4.52233 -0.691269,-4.52233 -0.01073,-0.0781 -0.0011,-0.14868 0.02891,-0.21159 0.03643,-0.0629 0.100222,-0.11408 0.191384,-0.15319 0.09753,-0.0389 0.22524,-0.07 0.382939,-0.0928 0.157663,-0.0227 0.359004,-0.0328 0.603679,-0.0299 0.251228,0.003 0.458899,0.0181 0.623244,0.0452 0.164294,0.0271 0.297436,0.0622 0.399428,0.10519 0.102156,0.0424 0.17679,0.097 0.224056,0.16304 0.0537,0.0662 0.08589,0.13979 0.09658,0.22037 0.653135,4.92428 1.191559,7.73057 1.54552,10.08763 z"
         style="font-style:normal;font-variant:normal;font-weight:bold;font-stretch:normal;font-size:19.7555542px;line-height:0;font-family:Calibri;-inkscape-font-specification:'Calibri Bold';fill:#ffffff;stroke-width:0.26458332"
         id="path3850"
         inkscape:connector-curvature="0"
         inkscape:original-d="m 37.74584,247.96938 q 0,0.0965 -0.06752,0.17364 -0.05788,0.0772 -0.202572,0.1254 -0.144694,0.0482 -0.38585,0.0772 -0.241157,0.0289 -0.617361,0.0289 -0.366558,0 -0.617361,-0.0289 -0.241157,-0.0289 -0.385851,-0.0772 -0.144694,-0.0482 -0.212218,-0.1254 -0.05788,-0.0772 -0.05788,-0.17364 v -11.78773 q 0,-0.0965 0.05788,-0.17364 0.06752,-0.0772 0.212218,-0.1254 0.15434,-0.0482 0.395497,-0.0772 0.241157,-0.0289 0.607715,-0.0289 0.376204,0 0.617361,0.0289 0.241156,0.0289 0.38585,0.0772 0.144694,0.0482 0.202572,0.1254 0.06752,0.0772 0.06752,0.17364 z" />
      <path
         d="m 10.556006,246.93327 c -3.01e-4,0.13275 -0.0109,0.25077 -0.03181,0.35406 -0.01402,0.10115 -0.03834,0.18748 -0.07297,0.25888 -0.02772,0.0645 -0.06575,0.11641 -0.11406,0.15544 -0.04141,0.0368 -0.09313,0.0654 -0.155092,0.0857 -0.08935,0.0293 -0.2340449,0.0347 -0.4325233,0.0148 -0.1986445,-0.0199 -0.4618252,-0.026 -0.7885067,-0.0189 -0.3264039,0.007 -0.7168529,0.0419 -1.1681486,0.10532 -0.4439058,0.061 -0.9622207,0.19195 -1.546902,0.39937 -0.6255823,0.22192 -1.1855101,0.51399 -1.6839658,0.88687 -0.4983007,0.36722 -0.9203328,0.79492 -1.2701274,1.28763 -0.3495161,0.48657 -0.6163559,1.02414 -0.8034119,1.61077 -0.186837,0.5801 -0.2813524,1.1829 -0.2847516,1.79883 -0.00374,0.67715 0.084493,1.23487 0.2650476,1.66134 0.1870812,0.41752 0.4480379,0.71118 0.7859997,0.87727 0.3382774,0.16623 0.7462818,0.20479 1.2293844,0.11624 0.4901956,-0.0922 1.0326265,-0.30335 1.634722,-0.62786 0.2940098,-0.15846 0.586085,-0.34439 0.8764342,-0.55635 0.2902899,-0.21191 0.5616794,-0.44069 0.8136194,-0.68495 0.010306,-0.87955 0.00395,-2.51755 0.00395,-2.51755 -0.8226808,0.3875 -2.4649223,1.17547 -2.4649223,1.17547 -0.1189344,0.0584 -0.2107174,0.0404 -0.275866,-0.0547 -0.065042,-0.10071 -0.096637,-0.30762 -0.094552,-0.61784 0.00108,-0.16077 0.00862,-0.29835 0.022571,-0.41293 0.020519,-0.11764 0.047475,-0.21513 0.080851,-0.29267 0.033424,-0.0832 0.073298,-0.14931 0.1196385,-0.19848 0.046389,-0.0548 0.099266,-0.0955 0.1586764,-0.1223 1.4528201,-0.64591 4.4335625,-1.872 4.4335625,-1.872 0.1103561,-0.0429 0.2071165,-0.0654 0.2899659,-0.0677 0.08979,-0.01 0.165891,2e-4 0.228087,0.0303 0.06914,0.0275 0.121034,0.0738 0.155573,0.13919 0.03455,0.0605 0.05178,0.14 0.05164,0.23913 0.0084,1.20053 0.0018,4.07115 0.0018,4.07115 4.05e-4,0.16835 -0.03753,0.33681 -0.113759,0.50564 -0.06931,0.15976 -0.218619,0.33433 -0.4474993,0.52548 -0.2221619,0.18782 -0.4984127,0.40784 -0.8294293,0.66366 -0.3306098,0.2555 -0.6738997,0.50985 -1.0288282,0.76191 -0.3481849,0.24845 -0.701438,0.48793 -1.0593951,0.71723 -0.3512275,0.22557 -0.7036776,0.43896 -1.0572289,0.63905 -1.0372435,0.58703 -1.9371163,0.97209 -2.7271166,1.14677 -0.7809721,0.16412 -1.4246048,0.12247 -1.9462014,-0.12036 -0.52077403,-0.24879 -0.90933486,-0.69364 -1.17609059,-1.32355 -0.26627188,-0.63516 -0.39784664,-1.45474 -0.396782,-2.43765 0.001099,-1.01484 0.14361585,-1.99508 0.43454727,-2.9153 0.29156006,-0.92846 0.70798957,-1.76796 1.25971742,-2.51359 0.5522306,-0.75234 1.2240968,-1.39221 2.0259689,-1.92949 0.8082327,-0.5394 1.7160203,-0.95008 2.7311182,-1.255 0.5565115,-0.16717 1.0684843,-0.28512 1.5309053,-0.35844 0.4626094,-0.0783 0.868332,-0.12412 1.2131619,-0.13948 0.3518359,-0.022 0.6447054,-0.0206 0.8761099,0.004 0.2316845,0.0241 0.3923055,0.0554 0.4811885,0.0947 0.09569,0.0374 0.164132,0.10938 0.205033,0.21594 0.04094,0.10207 0.06122,0.26654 0.0607,0.49529 0,0 -1e-6,7e-5 -1e-6,7e-5 z"
         style="font-style:normal;font-variant:normal;font-weight:bold;font-stretch:normal;font-size:19.7555542px;line-height:0;font-family:Calibri;-inkscape-font-specification:'Calibri Bold';fill:#ffffff;stroke-width:0.26458332"
         id="path3852"
         inkscape:connector-curvature="0"
         inkscape:original-d="m 10.446906,251.00245 q 0,0.27974 -0.02894,0.48231 -0.01929,0.20257 -0.06752,0.32797 -0.03858,0.11576 -0.106109,0.16399 -0.05788,0.0482 -0.144694,0.0482 -0.1254011,0 -0.4051428,-0.17363 -0.2797417,-0.17363 -0.7427625,-0.37621 -0.4630208,-0.20257 -1.1093207,-0.3762 -0.6366536,-0.17363 -1.4855251,-0.17363 -0.906749,0 -1.6398653,0.31832 -0.7331163,0.30868 -1.2540147,0.88746 -0.5208984,0.56913 -0.8006401,1.37942 -0.2797418,0.80064 -0.2797418,1.77491 0,1.07074 0.2797418,1.89067 0.289388,0.81028 0.8006401,1.36012 0.5112521,0.54984 1.2250759,0.82958 0.72347,0.27974 1.591634,0.27974 0.4244357,0 0.8392252,-0.0965 0.4147895,-0.0965 0.7717013,-0.28939 V 256.3657 H 5.52731 q -0.1736328,0 -0.2700955,-0.21222 -0.096463,-0.22186 -0.096463,-0.74276 0,-0.27009 0.019293,-0.45337 0.028939,-0.18328 0.07717,-0.28939 0.048231,-0.11576 0.1157552,-0.16399 0.067524,-0.0579 0.1543403,-0.0579 h 4.2154185 q 0.1543403,0 0.2700955,0.0579 0.125401,0.0482 0.212218,0.15434 0.09646,0.10611 0.144694,0.26045 0.04823,0.1447 0.04823,0.33762 v 4.96783 q 0,0.28939 -0.106109,0.51125 -0.09646,0.21222 -0.4147892,0.33762 -0.3086805,0.1254 -0.7717013,0.26045 -0.4630208,0.13505 -0.9646267,0.23151 -0.4919596,0.0965 -1.0032117,0.14469 -0.5016059,0.0482 -1.012858,0.0482 -1.4951714,0 -2.6816622,-0.42443 -1.1768445,-0.43408 -1.9967772,-1.24437 -0.81993267,-0.81993 -1.25401467,-1.98713 -0.434082,-1.17685 -0.434082,-2.66237 0,-1.53376 0.4630208,-2.74919 0.4630208,-1.22507 1.31189227,-2.07394 0.8488715,-0.85852 2.0450085,-1.3119 1.2057834,-0.45337 2.6816622,-0.45337 0.8102864,0 1.4758788,0.11575 0.6655924,0.10611 1.157552,0.2701 0.5016059,0.15434 0.8295789,0.33762 0.3279735,0.18328 0.4533745,0.31833 0.135048,0.13504 0.192925,0.38585 0.05788,0.24115 0.05788,0.72347 z" />
      <path
         d="m 23.587928,250.58188 c -2.15e-4,0.0511 -0.01454,0.0976 -0.04294,0.13943 -0.02841,0.0372 -0.0955,0.0757 -0.201526,0.11649 -0.106327,0.0409 -0.261064,0.083 -0.466418,0.12914 -0.211334,0.0475 -0.478119,0.10128 -0.838693,0.17551 -0.300694,0.0619 -0.532168,0.10892 -0.712678,0.1402 -0.177664,0.0308 -0.319175,0.0474 -0.425918,0.0485 -0.09942,-0.006 -0.170321,-0.0225 -0.212917,-0.0512 -0.04255,-0.0337 -0.07798,-0.0762 -0.106334,-0.12767 -0.400344,-0.59715 -1.246257,-1.70231 -1.246257,-1.70231 -0.151391,-0.17923 -0.299769,-0.33242 -0.443975,-0.46076 -0.144234,-0.12836 -0.306444,-0.22312 -0.485669,-0.2849 -0.172102,-0.0678 -0.372885,-0.10031 -0.60107,-0.0967 -0.228033,0.004 -0.492242,0.0452 -0.790502,0.1276 -0.279812,0.084 -0.87416,0.25086 -0.87416,0.25086 0.02005,0.99194 0.01801,3.55909 0.01801,3.55909 6.3e-5,0.0526 -0.02481,0.10929 -0.07459,0.17041 -0.04269,0.0585 -0.117358,0.1213 -0.224087,0.18904 -0.106833,0.0678 -0.248847,0.14431 -0.426708,0.23103 -0.178133,0.0868 -0.40476,0.18596 -0.682045,0.30063 -0.270454,0.11185 -0.496025,0.19955 -0.680975,0.26238 -0.177371,0.0596 -0.318635,0.0992 -0.425032,0.118 -0.106241,0.0189 -0.180516,0.0157 -0.223082,-0.01 -0.04253,-0.0255 -0.06386,-0.0659 -0.064,-0.1209 0.0016,-1.65726 -0.0044,-3.80875 -0.01559,-5.43572 -0.01109,-1.61778 -0.02926,-2.80816 -0.02926,-2.80816 -0.0023,-0.18059 0.07215,-0.32617 0.223272,-0.43509 0.158085,-0.11449 0.35106,-0.19353 0.579822,-0.23846 1.172013,-0.22401 3.492089,-0.57986 3.492089,-0.57986 0.353642,-0.0476 0.648726,-0.0803 0.877495,-0.1005 0.229873,-0.0203 0.439558,-0.0351 0.627903,-0.0451 0.544442,-0.0209 1.037367,-0.002 1.474827,0.0502 0.444534,0.0516 0.823794,0.13997 1.134108,0.25987 0.317242,0.11633 0.564825,0.2656 0.739861,0.44602 0.175044,0.17749 0.271822,0.38919 0.288317,0.63927 0.01395,0.21142 -0.03399,0.41257 -0.143768,0.60556 -0.102963,0.18904 -0.264113,0.36917 -0.483566,0.54292 -0.219529,0.17382 -0.493446,0.34057 -0.822305,0.50343 -0.328856,0.16286 -0.705029,0.31868 -1.128923,0.47002 0.206945,0.0166 0.400253,0.0487 0.579308,0.0956 0.186132,0.0457 0.358781,0.11238 0.517185,0.19991 0.165415,0.0825 0.320748,0.18559 0.465249,0.30985 0.144407,0.12029 0.285723,0.26303 0.423013,0.42944 0.405021,0.46426 1.169001,1.45799 1.169001,1.45799 0.105824,0.15443 0.176391,0.27257 0.211289,0.34961 0.03506,0.0728 0.05244,0.13267 0.05225,0.17909 0,0 3e-6,2e-5 3e-6,2e-5 z m -3.698175,-4.69644 c -0.0099,-0.22468 -0.12128,-0.39738 -0.332505,-0.52169 -0.210337,-0.12378 -0.551087,-0.18693 -1.016038,-0.18101 -0.140997,0.003 -0.303242,0.0139 -0.485955,0.0321 -0.174648,0.017 -0.422726,0.0516 -0.737157,0.10616 -0.402764,0.0756 -1.240894,0.23106 -1.240894,0.23106 0.02897,0.66758 0.04587,2.17303 0.04587,2.17303 0.485495,-0.12172 1.423881,-0.35224 1.423881,-0.35224 0.396904,-0.0915 0.74366,-0.19167 1.039929,-0.30202 0.296241,-0.11423 0.54188,-0.23267 0.737234,-0.35739 0.195194,-0.12843 0.339839,-0.26097 0.434093,-0.39942 0.09423,-0.13842 0.138047,-0.28082 0.131545,-0.42858 0,0 0,0 0,0 z"
         style="font-style:normal;font-variant:normal;font-weight:bold;font-stretch:normal;font-size:19.7555542px;line-height:0;font-family:Calibri;-inkscape-font-specification:'Calibri Bold';fill:#ffffff;stroke-width:0.26458332"
         id="path3854"
         inkscape:connector-curvature="0"
         inkscape:original-d="m 22.273229,261.21784 q 0,0.10611 -0.03859,0.18328 -0.03858,0.0675 -0.183279,0.11576 -0.144694,0.0482 -0.424436,0.0675 -0.279742,0.0193 -0.762055,0.0193 -0.405143,0 -0.6463,-0.0193 -0.241157,-0.0193 -0.385851,-0.0675 -0.135047,-0.0579 -0.192925,-0.13505 -0.05788,-0.0868 -0.09646,-0.20257 l -1.118967,-2.78777 q -0.202571,-0.47267 -0.395497,-0.83923 -0.192925,-0.36656 -0.434082,-0.60771 -0.23151,-0.25081 -0.540191,-0.37621 -0.30868,-0.1254 -0.713823,-0.1254 h -0.790994 v 4.75561 q 0,0.0965 -0.06752,0.17363 -0.05788,0.0772 -0.202572,0.12541 -0.144694,0.0482 -0.38585,0.0772 -0.241157,0.0289 -0.617361,0.0289 -0.366558,0 -0.617361,-0.0289 -0.241157,-0.0289 -0.385851,-0.0772 -0.144694,-0.0482 -0.202572,-0.12541 -0.05788,-0.0772 -0.05788,-0.17363 v -11.33436 q 0,-0.42444 0.212218,-0.60772 0.221864,-0.19292 0.540191,-0.19292 h 3.231499 q 0.491959,0 0.810286,0.0193 0.318327,0.0193 0.578776,0.0482 0.752409,0.10611 1.350478,0.36656 0.607714,0.26045 1.022504,0.68488 0.424436,0.41479 0.6463,0.99357 0.221864,0.56913 0.221864,1.31189 0,0.62701 -0.163987,1.14791 -0.15434,0.51125 -0.46302,0.91639 -0.308681,0.40515 -0.762056,0.70418 -0.453374,0.29904 -1.03215,0.48231 0.279742,0.13505 0.520898,0.32798 0.250803,0.19292 0.463021,0.47266 0.221864,0.2701 0.41479,0.62701 0.192925,0.34727 0.376204,0.791 l 1.051443,2.45979 q 0.144694,0.36656 0.192925,0.54019 0.04823,0.16399 0.04823,0.26045 z m -3.270085,-8.46942 q 0,-0.61736 -0.279741,-1.0418 -0.279742,-0.42443 -0.916396,-0.59806 -0.192925,-0.0482 -0.443728,-0.0772 -0.241157,-0.0289 -0.675239,-0.0289 h -1.138259 v 3.54018 h 1.2926 q 0.540191,0 0.945334,-0.1254 0.405143,-0.13505 0.675238,-0.36656 0.270096,-0.24116 0.405144,-0.56913 0.135047,-0.32798 0.135047,-0.73312 z" />
      <path
         d="m 28.36141,250.24956 c -3.74e-4,0.0434 -0.02486,0.0821 -0.07347,0.1164 -0.04176,0.0344 -0.114381,0.062 -0.218192,0.0834 -0.104038,0.0215 -0.241854,0.0389 -0.415229,0.0541 -0.174258,0.0152 -0.393698,0.0256 -0.665656,0.035 -0.264981,0.009 -0.485477,0.0139 -0.667624,0.0109 -0.174396,-0.003 -0.313215,-0.0118 -0.41808,-0.027 -0.10462,-0.0151 -0.181169,-0.0385 -0.229904,-0.071 -0.04169,-0.0329 -0.06241,-0.0719 -0.06214,-0.11693 0.01528,-1.54056 -0.0095,-3.00081 -0.09976,-4.33567 -0.08149,-1.20485 -0.204747,-2.10496 -0.204747,-2.10496 -0.0037,-0.0299 0.01355,-0.0565 0.05173,-0.0797 0.04502,-0.023 0.118093,-0.041 0.219017,-0.0534 0.107666,-0.0122 0.246889,-0.0203 0.416707,-0.0235 0.169519,-0.003 0.385266,5.8e-4 0.644316,0.0129 0.26571,0.0126 0.485641,0.0297 0.6566,0.0489 0.171361,0.0193 0.30953,0.0404 0.413519,0.0623 0.104131,0.0219 0.178398,0.0464 0.2226,0.073 0.05103,0.0272 0.0787,0.0556 0.08297,0.085 0.262314,1.81236 0.370658,3.5295 0.347343,6.23021 z"
         style="font-style:normal;font-variant:normal;font-weight:bold;font-stretch:normal;font-size:19.7555542px;line-height:0;font-family:Calibri;-inkscape-font-specification:'Calibri Bold';fill:#ffffff;stroke-width:0.26458332"
         id="path3856"
         inkscape:connector-curvature="0"
         inkscape:original-d="m 26.671926,261.19855 q 0,0.0965 -0.06752,0.17363 -0.05788,0.0772 -0.202571,0.12541 -0.144694,0.0482 -0.385851,0.0772 -0.241156,0.0289 -0.617361,0.0289 -0.366558,0 -0.617361,-0.0289 -0.241157,-0.0289 -0.385851,-0.0772 -0.144694,-0.0482 -0.212217,-0.12541 -0.05788,-0.0772 -0.05788,-0.17363 v -11.78774 q 0,-0.0965 0.05788,-0.17363 0.06752,-0.0772 0.212217,-0.1254 0.154341,-0.0482 0.395497,-0.0772 0.241157,-0.0289 0.607715,-0.0289 0.376205,0 0.617361,0.0289 0.241157,0.0289 0.385851,0.0772 0.144694,0.0482 0.202571,0.1254 0.06752,0.0772 0.06752,0.17363 z" />
      <path
         d="m 38.825116,252.12024 c -0.0013,0.11607 -0.01222,0.21135 -0.03258,0.28487 -0.01395,0.0721 -0.03735,0.12649 -0.07009,0.16281 -0.03274,0.0363 -0.07484,0.0566 -0.126292,0.0608 -0.045,0.003 -0.09615,-0.008 -0.153541,-0.0306 -1.157605,-0.45991 -2.476595,-0.91773 -3.948199,-1.28985 -1.341109,-0.33912 -2.438268,-0.50226 -2.438268,-0.50226 -0.222115,-0.035 -0.409618,-0.10229 -0.564092,-0.20405 -0.14744,-0.10493 -0.220175,-0.24896 -0.218851,-0.43015 0.01542,-1.29943 -0.01449,-2.54515 -0.118372,-3.73291 -0.0937,-1.07133 -0.232363,-1.90218 -0.232363,-1.90218 -0.0199,-0.13082 0.03877,-0.2152 0.176836,-0.25154 0.144166,-0.0384 0.326306,-0.0418 0.5463,-0.008 2.16516,0.33372 6.339166,1.35183 6.339166,1.35183 0.05773,0.0156 0.110303,0.0383 0.157794,0.0684 0.04749,0.0301 0.09063,0.0728 0.129395,0.12804 0.03823,0.0517 0.06886,0.11497 0.09171,0.18951 0.02874,0.0728 0.05051,0.16224 0.06488,0.26752 0.01341,0.0983 0.01495,0.17914 0.0049,0.24284 -0.0041,0.0622 -0.01961,0.109 -0.04629,0.14064 -0.02669,0.0316 -0.06117,0.0508 -0.10337,0.0577 -0.04264,0.003 -0.09278,-0.004 -0.150452,-0.0212 -1.469698,-0.44164 -4.511772,-1.15835 -4.511772,-1.15835 0.07619,0.48106 0.164787,1.46101 0.164787,1.46101 1.3068,0.29992 3.830767,1.06963 3.830767,1.06963 0.0579,0.0191 0.110172,0.0463 0.156785,0.0815 0.05276,0.034 0.09682,0.0767 0.132085,0.12812 0.03499,0.048 0.0615,0.10812 0.07931,0.18035 0.02397,0.0711 0.03928,0.15434 0.0456,0.24994 0.0066,0.099 0.002,0.17809 -0.01343,0.23663 -0.009,0.0608 -0.02844,0.10638 -0.05826,0.13645 -0.03002,0.0266 -0.07026,0.0395 -0.120739,0.0386 -0.04406,0.001 -0.09499,-0.008 -0.15287,-0.0283 -1.246978,-0.43114 -3.831018,-1.11962 -3.831018,-1.11962 0.04337,0.61405 0.0528,1.9471 0.0528,1.9471 1.555984,0.37064 4.548264,1.43749 4.548264,1.43749 0.05741,0.0227 0.10845,0.0546 0.153039,0.0957 0.05096,0.0397 0.09237,0.0894 0.124088,0.14908 0.03172,0.0596 0.05382,0.13128 0.0661,0.21523 0.01866,0.0826 0.02752,0.18158 0.02626,0.29761 0,0 -10e-7,4e-5 -10e-7,4e-5 z"
         style="font-style:normal;font-variant:normal;font-weight:bold;font-stretch:normal;font-size:19.7555542px;line-height:0;font-family:Calibri;-inkscape-font-specification:'Calibri Bold';fill:#ffffff;stroke-width:0.26458332"
         id="path3858"
         inkscape:connector-curvature="0"
         inkscape:original-d="m 36.810152,260.55225 q 0,0.27974 -0.02894,0.47267 -0.01929,0.18328 -0.06752,0.29903 -0.04823,0.11576 -0.125402,0.17364 -0.06752,0.0482 -0.15434,0.0482 h -6.270073 q -0.318327,0 -0.540191,-0.18328 -0.212218,-0.19293 -0.212218,-0.61736 v -10.88099 q 0,-0.42444 0.212218,-0.60772 0.221864,-0.19292 0.540191,-0.19292 h 6.231488 q 0.08682,0 0.15434,0.0482 0.06752,0.0482 0.115755,0.17363 0.04823,0.11576 0.06752,0.30868 0.02894,0.18328 0.02894,0.47267 0,0.27009 -0.02894,0.46302 -0.01929,0.18328 -0.06752,0.29903 -0.04823,0.11576 -0.115755,0.17364 -0.06752,0.0482 -0.15434,0.0482 H 31.93879 v 3.04822 h 3.77169 q 0.08682,0 0.15434,0.0579 0.07717,0.0482 0.125402,0.16398 0.04823,0.10611 0.06752,0.29904 0.02894,0.18328 0.02894,0.45337 0,0.27974 -0.02894,0.46302 -0.01929,0.18328 -0.06752,0.29904 -0.04823,0.10611 -0.125402,0.15434 -0.06752,0.0482 -0.15434,0.0482 h -3.77169 v 3.52089 h 4.49516 q 0.08682,0 0.15434,0.0579 0.07717,0.0482 0.125402,0.16399 0.04823,0.11576 0.06752,0.30868 0.02894,0.18328 0.02894,0.46302 z" />
      <path
         d="m 47.397804,249.41204 c 0.01056,0.14639 0.01014,0.26656 -9.41e-4,0.36083 -0.0054,0.0918 -0.02431,0.15913 -0.05656,0.20228 -0.02623,0.0455 -0.05949,0.074 -0.09971,0.0857 -0.04022,0.0117 -0.08742,0.007 -0.14161,-0.0149 -1.263812,-0.49592 -3.866641,-1.52477 -3.866641,-1.52477 0.07692,0.7173 0.157817,2.07437 0.157817,2.07437 1.237942,0.57312 3.603984,1.71984 3.603984,1.71984 0.05378,0.0263 0.101989,0.0606 0.144647,0.10329 0.04265,0.0427 0.07991,0.098 0.111718,0.1662 0.03777,0.0711 0.06419,0.15425 0.07915,0.24925 0.02091,0.0979 0.03349,0.21377 0.03746,0.3469 0.004,0.13313 -0.002,0.23929 -0.01756,0.31834 -0.0096,0.0822 -0.03168,0.14251 -0.06603,0.18084 -0.02841,0.0415 -0.06317,0.0642 -0.104233,0.0683 -0.04116,-3.2e-4 -0.08851,-0.0149 -0.142089,-0.0435 -1.172416,-0.62041 -3.592178,-1.86672 -3.592178,-1.86672 0.03995,0.96124 0.01465,2.93637 0.01465,2.93637 -8.93e-4,0.0465 -0.02001,0.0767 -0.05733,0.0904 -0.03735,0.0138 -0.105073,0.006 -0.203457,-0.0218 -0.09233,-0.0291 -0.21472,-0.0789 -0.368467,-0.1489 -0.154398,-0.0704 -0.349414,-0.16848 -0.590576,-0.29478 -0.234478,-0.12279 -0.431699,-0.23018 -0.592763,-0.3245 -0.15474,-0.0911 -0.278294,-0.16956 -0.371211,-0.23674 -0.09272,-0.0713 -0.160519,-0.13393 -0.203458,-0.18852 -0.03669,-0.0515 -0.0546,-0.10003 -0.05375,-0.14553 0.03077,-1.35727 0.01205,-2.7421 -0.09367,-4.1976 -0.09568,-1.31721 -0.246677,-2.4382 -0.246677,-2.4382 -0.02087,-0.16764 0.03252,-0.26753 0.161481,-0.29839 0.134596,-0.0328 0.305592,-0.0181 0.512553,0.0471 1.946439,0.61846 5.630375,1.87386 5.630375,1.87386 0.0546,0.0184 0.104281,0.0496 0.149101,0.0939 0.04441,0.0392 0.0843,0.0963 0.119625,0.17135 0.04098,0.0721 0.07149,0.1624 0.09143,0.27039 0.02597,0.11009 0.04436,0.23889 0.05492,0.38533 0,0 5e-6,1e-5 5e-6,1e-5 z"
         style="font-style:normal;font-variant:normal;font-weight:bold;font-stretch:normal;font-size:19.7555542px;line-height:0;font-family:Calibri;-inkscape-font-specification:'Calibri Bold';fill:#ffffff;stroke-width:0.26458332"
         id="path3860"
         inkscape:connector-curvature="0"
         inkscape:original-d="m 46.060924,250.10534 q 0,0.28939 -0.02894,0.49196 -0.01929,0.19293 -0.07717,0.30868 -0.04823,0.11576 -0.115755,0.17364 -0.06752,0.0579 -0.15434,0.0579 h -4.080371 v 3.35691 h 3.829568 q 0.08682,0 0.15434,0.0482 0.06752,0.0482 0.115755,0.16398 0.05788,0.11576 0.07717,0.30868 0.02894,0.19293 0.02894,0.48232 0,0.28939 -0.02894,0.48231 -0.01929,0.19293 -0.07717,0.31833 -0.04823,0.1254 -0.115755,0.18328 -0.06752,0.0482 -0.15434,0.0482 h -3.829568 v 4.6495 q 0,0.10611 -0.05788,0.18328 -0.05788,0.0772 -0.212217,0.13505 -0.144694,0.0482 -0.385851,0.0772 -0.241157,0.0289 -0.617361,0.0289 -0.366558,0 -0.617361,-0.0289 -0.241157,-0.0289 -0.385851,-0.0772 -0.144694,-0.0579 -0.212218,-0.13505 -0.05788,-0.0772 -0.05788,-0.18328 v -11.31507 q 0,-0.42444 0.212217,-0.60772 0.221865,-0.19292 0.540191,-0.19292 h 5.874577 q 0.08682,0 0.15434,0.0579 0.06752,0.0482 0.115755,0.17363 0.05788,0.11575 0.07717,0.31832 0.02894,0.20258 0.02894,0.49196 z" />
      <path
         d="m 56.173231,261.43446 c -0.0017,0.15644 -0.0119,0.28482 -0.03056,0.38524 -0.0128,0.0974 -0.03412,0.17222 -0.0639,0.22461 -0.02978,0.0524 -0.06807,0.085 -0.114836,0.0978 -0.0409,0.01 -0.08742,0.004 -0.139533,-0.0183 -1.823818,-0.76213 -5.64404,-3.04429 -5.64404,-3.04429 -0.192208,-0.1178 -0.354773,-0.26337 -0.487337,-0.43466 -0.126737,-0.17251 -0.188266,-0.36081 -0.185217,-0.56521 0.02676,-1.45229 0.02158,-3.11024 -0.04129,-4.97051 -0.05753,-1.70224 -0.153848,-3.20006 -0.153848,-3.20006 -0.01381,-0.23151 0.04143,-0.37734 0.167008,-0.43702 0.131149,-0.0631 0.295606,-0.0651 0.493127,-0.004 1.061616,0.3344 2.324627,0.70219 3.609757,0.99758 1.196483,0.275 2.15133,0.41562 2.15133,0.41562 0.0534,0.008 0.101221,0.0316 0.143478,0.0701 0.04225,0.0385 0.07912,0.10188 0.110566,0.19014 0.0313,0.0818 0.0542,0.1879 0.06864,0.318 0.02023,0.12456 0.03219,0.28275 0.03576,0.47348 0.0033,0.17797 -0.0028,0.32822 -0.01832,0.45107 -0.0097,0.11758 -0.02869,0.2111 -0.05687,0.28073 -0.02818,0.0696 -0.06258,0.11909 -0.103145,0.1485 -0.04067,0.0232 -0.08748,0.0295 -0.140429,0.0189 -1.349942,-0.25922 -4.078281,-1.12594 -4.078281,-1.12594 0.04379,0.90619 0.07706,2.54517 0.07706,2.54517 1.151669,0.49565 3.416766,1.25755 3.416766,1.25755 0.05241,0.0157 0.09914,0.0468 0.140212,0.0935 0.04684,0.0426 0.0851,0.10284 0.114778,0.1808 0.02962,0.0721 0.05068,0.16772 0.06312,0.28645 0.01822,0.11467 0.02781,0.2525 0.02869,0.41277 9.09e-4,0.16596 -0.0072,0.29997 -0.02418,0.40228 -0.01117,0.10417 -0.03119,0.18531 -0.05998,0.2435 -0.02881,0.0525 -0.06638,0.085 -0.112693,0.0974 -0.04051,0.0143 -0.08686,0.0125 -0.139038,-0.006 -1.124641,-0.38011 -3.401689,-1.41706 -3.401689,-1.41706 0.01989,0.94984 0.0047,2.72873 0.0047,2.72873 0.743765,0.41406 1.624647,0.87848 2.528241,1.29599 0.839988,0.38811 1.511311,0.64083 1.511311,0.64083 0.05209,0.0201 0.09824,0.054 0.138496,0.10193 0.04609,0.0447 0.08332,0.10495 0.111698,0.18104 0.02837,0.0761 0.04785,0.17055 0.05839,0.28334 0.01638,0.10953 0.02378,0.2428 0.02209,0.39925 0,0 0,6e-5 0,6e-5 z"
         style="font-style:normal;font-variant:normal;font-weight:bold;font-stretch:normal;font-size:19.7555542px;line-height:0;font-family:Calibri;-inkscape-font-specification:'Calibri Bold';fill:#ffffff;stroke-width:0.26458332"
         id="path3862"
         inkscape:connector-curvature="0"
         inkscape:original-d="m 55.523911,260.55225 q 0,0.27974 -0.02894,0.47267 -0.01929,0.18328 -0.06752,0.29903 -0.04823,0.11576 -0.125401,0.17364 -0.06752,0.0482 -0.154341,0.0482 h -6.270073 q -0.318327,0 -0.540191,-0.18328 -0.212218,-0.19293 -0.212218,-0.61736 v -10.88099 q 0,-0.42444 0.212218,-0.60772 0.221864,-0.19292 0.540191,-0.19292 h 6.231488 q 0.08682,0 0.154341,0.0482 0.06752,0.0482 0.115755,0.17363 0.04823,0.11576 0.06752,0.30868 0.02894,0.18328 0.02894,0.47267 0,0.27009 -0.02894,0.46302 -0.01929,0.18328 -0.06752,0.29903 -0.04823,0.11576 -0.115755,0.17364 -0.06752,0.0482 -0.154341,0.0482 h -4.456575 v 3.04822 h 3.77169 q 0.08682,0 0.154341,0.0579 0.07717,0.0482 0.125401,0.16398 0.04823,0.10611 0.06752,0.29904 0.02894,0.18328 0.02894,0.45337 0,0.27974 -0.02894,0.46302 -0.01929,0.18328 -0.06752,0.29904 -0.04823,0.10611 -0.125401,0.15434 -0.06752,0.0482 -0.154341,0.0482 h -3.77169 v 3.52089 h 4.49516 q 0.08682,0 0.154341,0.0579 0.07717,0.0482 0.125401,0.16399 0.04823,0.11576 0.06752,0.30868 0.02894,0.18328 0.02894,0.46302 z" />
      <path
         d="m 67.031907,261.21785 c 0,0.0707 -0.0131,0.14024 -0.03931,0.20838 -0.02611,0.0614 -0.08846,0.13974 -0.186301,0.2317 -0.0974,0.0915 -0.241762,0.20101 -0.429119,0.31896 -0.18582,0.11699 -0.444807,0.26322 -0.762444,0.41367 -0.266466,0.12622 -0.482831,0.21033 -0.638968,0.26061 -0.157741,0.0508 -0.284307,0.0756 -0.378178,0.0783 -0.08784,-0.006 -0.150544,-0.028 -0.187931,-0.065 -0.03743,-0.0432 -0.06854,-0.0981 -0.09332,-0.16451 -0.350416,-0.77267 -1.06787,-2.39341 -1.06787,-2.39341 -0.127638,-0.27532 -0.251913,-0.51951 -0.373008,-0.73202 -0.121117,-0.21255 -0.257287,-0.38281 -0.40852,-0.51233 -0.14518,-0.13703 -0.314214,-0.23103 -0.507252,-0.28557 -0.19317,-0.0546 -0.415457,-0.0685 -0.667622,-0.0479 -0.23835,0.0293 -0.735163,0.0361 -0.735163,0.0361 0.0026,1.57447 -0.02719,4.45299 -0.02719,4.45299 -4.42e-4,0.0585 -0.02172,0.11001 -0.0638,0.15389 -0.03608,0.0443 -0.09904,0.0779 -0.188488,0.0992 -0.0893,0.0213 -0.208775,0.0332 -0.357014,0.0328 -0.14799,-4.7e-4 -0.33845,-0.0175 -0.568216,-0.0566 -0.223561,-0.038 -0.413223,-0.085 -0.565127,-0.13477 -0.14646,-0.0486 -0.264111,-0.0992 -0.351466,-0.14843 -0.08758,-0.0493 -0.148789,-0.10149 -0.183399,-0.15511 -0.03466,-0.0537 -0.0517,-0.10853 -0.05113,-0.16441 0.02289,-1.76756 0.03768,-4.03745 0.03244,-6.45441 -0.0049,-2.2657 -0.02901,-4.22858 -0.02901,-4.22858 -0.0031,-0.29154 0.05988,-0.49824 0.189683,-0.62109 0.135742,-0.12939 0.302067,-0.19298 0.49947,-0.19177 1.011101,0.0167 3.028246,-0.24964 3.028246,-0.24964 0.317488,-0.0562 0.5597,-0.10164 0.768862,-0.13532 0.202615,-0.0326 0.385439,-0.0617 0.552082,-0.0858 0.479765,-0.0533 0.912556,-0.0645 1.298347,-0.0243 0.391883,0.038 0.723535,0.13479 0.993777,0.30294 0.276566,0.15867 0.488199,0.38949 0.633853,0.70502 0.145635,0.30893 0.218611,0.70874 0.218006,1.20919 -5.1e-4,0.42196 -0.05532,0.83914 -0.164409,1.25059 -0.102565,0.40087 -0.256396,0.79496 -0.46007,1.17352 -0.20355,0.37834 -0.45449,0.74079 -0.750225,1.07404 -0.295821,0.33335 -0.630857,0.63217 -1.003041,0.88381 0.179381,0.0281 0.346904,0.0748 0.502536,0.14197 0.161863,0.0647 0.311718,0.15912 0.449478,0.28485 0.144052,0.11651 0.279143,0.2626 0.40517,0.43932 0.12603,0.17028 0.249346,0.37138 0.369897,0.60347 0.355846,0.64223 1.05088,1.85042 1.05088,1.85042 0.09779,0.18345 0.162946,0.32099 0.195771,0.41614 0.03272,0.0884 0.04909,0.16464 0.04909,0.22896 -3e-6,1e-5 -5e-6,1e-5 -8e-6,2e-5 m -3.206666,-6.93668 c 0.0014,-0.42379 -0.08712,-0.75155 -0.264895,-0.99067 -0.178203,-0.23969 -0.468746,-0.3608 -0.871954,-0.3874 -0.122154,-0.005 -0.262036,-7.6e-4 -0.420248,0.011 -0.154082,0.0107 -0.362451,0.0408 -0.63671,0.0831 -0.3475,0.0641 -1.066043,0.12335 -1.066043,0.12335 0.01153,1.26002 -0.002,3.58812 -0.002,3.58812 0.408954,-0.007 1.205438,-0.11133 1.205438,-0.11133 0.337711,-0.0486 0.63536,-0.14828 0.891399,-0.29004 0.25601,-0.14822 0.471043,-0.32919 0.643303,-0.53475 0.172377,-0.21221 0.302577,-0.44649 0.389604,-0.69745 0.08712,-0.25121 0.131209,-0.51627 0.132117,-0.79388 0,0 0,-1e-5 0,-1e-5 z"
         style="font-style:normal;font-variant:normal;font-weight:bold;font-stretch:normal;font-size:19.7555542px;line-height:0;font-family:Calibri;-inkscape-font-specification:'Calibri Bold';fill:#ffffff;stroke-width:0.26458332"
         id="path3864"
         inkscape:connector-curvature="0"
         inkscape:original-d="m 67.031907,261.21784 q 0,0.10611 -0.03858,0.18328 -0.03859,0.0675 -0.183279,0.11576 -0.144694,0.0482 -0.424436,0.0675 -0.279741,0.0193 -0.762055,0.0193 -0.405143,0 -0.6463,-0.0193 -0.241156,-0.0193 -0.38585,-0.0675 -0.135048,-0.0579 -0.192926,-0.13505 -0.05788,-0.0868 -0.09646,-0.20257 l -1.118967,-2.78777 q -0.202572,-0.47267 -0.395497,-0.83923 -0.192926,-0.36656 -0.434082,-0.60771 -0.231511,-0.25081 -0.540191,-0.37621 -0.308681,-0.1254 -0.713824,-0.1254 h -0.790994 v 4.75561 q 0,0.0965 -0.06752,0.17363 -0.05788,0.0772 -0.202571,0.12541 -0.144694,0.0482 -0.385851,0.0772 -0.241157,0.0289 -0.617361,0.0289 -0.366558,0 -0.617361,-0.0289 -0.241157,-0.0289 -0.385851,-0.0772 -0.144694,-0.0482 -0.202571,-0.12541 -0.05788,-0.0772 -0.05788,-0.17363 v -11.33436 q 0,-0.42444 0.212218,-0.60772 0.221864,-0.19292 0.540191,-0.19292 h 3.231499 q 0.49196,0 0.810287,0.0193 0.318326,0.0193 0.578776,0.0482 0.752408,0.10611 1.350477,0.36656 0.607715,0.26045 1.022504,0.68488 0.424436,0.41479 0.6463,0.99357 0.221864,0.56913 0.221864,1.31189 0,0.62701 -0.163986,1.14791 -0.15434,0.51125 -0.463021,0.91639 -0.308681,0.40515 -0.762055,0.70418 -0.453375,0.29904 -1.032151,0.48231 0.279742,0.13505 0.520899,0.32798 0.250803,0.19292 0.463021,0.47266 0.221864,0.2701 0.414789,0.62701 0.192925,0.34727 0.376204,0.791 l 1.051444,2.45979 q 0.144694,0.36656 0.192925,0.54019 0.04823,0.16399 0.04823,0.26045 z m -3.270084,-8.46942 q 0,-0.61736 -0.279742,-1.0418 -0.279742,-0.42443 -0.916395,-0.59806 -0.192926,-0.0482 -0.443729,-0.0772 -0.241156,-0.0289 -0.675238,-0.0289 h -1.13826 v 3.54018 h 1.2926 q 0.540191,0 0.945334,-0.1254 0.405143,-0.13505 0.675239,-0.36656 0.270095,-0.24116 0.405143,-0.56913 0.135048,-0.32798 0.135048,-0.73312 z" />
      <path
         d="m 10.565966,257.82435 c 9.75e-4,0.18028 -0.0086,0.34245 -0.02868,0.48576 -0.01315,0.1396 -0.03683,0.26027 -0.07107,0.36152 -0.02733,0.0912 -0.06517,0.16597 -0.11356,0.22423 -0.04144,0.0545 -0.09336,0.0988 -0.155752,0.13282 -0.09019,0.0492 -0.2359211,0.0712 -0.4372631,0.0668 -0.2012462,-0.004 -0.4679051,0.0185 -0.7988229,0.0694 -0.3310115,0.051 -0.7256754,0.14899 -1.1825219,0.29458 -0.4499772,0.14167 -0.971191,0.38414 -1.5599751,0.72732 -0.6285191,0.36634 -1.1892811,0.80305 -1.6841699,1.30982 -0.494998,0.50035 -0.9122353,1.04781 -1.2548906,1.64361 -0.3426208,0.5891 -0.6021448,1.21266 -0.7806947,1.87235 -0.1785788,0.653 -0.2645543,1.31453 -0.2579761,1.98722 0.00723,0.73957 0.1057751,1.34753 0.2971216,1.82265 0.1976119,0.46488 0.4695601,0.80507 0.8171337,1.01464 0.3475964,0.20958 0.764955,0.28886 1.2532859,0.22944 0.4953458,-0.063 1.0412784,-0.2578 1.6410995,-0.59144 0.2931631,-0.16307 0.5833167,-0.36157 0.8708313,-0.59595 0.2874946,-0.23436 0.5552054,-0.49483 0.8031385,-0.78106 -0.00293,-1.10186 -0.039175,-3.20154 -0.039175,-3.20154 -0.8295677,0.49256 -2.4622224,1.43378 -2.4622224,1.43378 -0.11911,0.0691 -0.2125311,0.0469 -0.2805015,-0.0659 -0.068034,-0.11955 -0.1044531,-0.3643 -0.1091095,-0.73181 -0.00241,-0.19053 0.0022,-0.35378 0.01379,-0.49016 0.018181,-0.14025 0.043317,-0.25709 0.07539,-0.35074 0.031991,-0.1004 0.0709,-0.18102 0.1167205,-0.24196 0.04574,-0.0677 0.098379,-0.11909 0.1579232,-0.1542 1.4564351,-0.84839 4.4355566,-2.57976 4.4355566,-2.57976 0.1102491,-0.0621 0.2070439,-0.0961 0.2901859,-0.10199 0.09,-0.0165 0.166439,-0.005 0.22919,0.0349 0.06967,0.0359 0.12221,0.0986 0.15758,0.18824 0.03532,0.0828 0.05347,0.19259 0.05448,0.32962 0.02295,1.70682 0.04111,5.54174 0.04111,5.54174 0.0016,0.22389 -0.03466,0.44314 -0.108446,0.65694 -0.06704,0.2026 -0.21257,0.41446 -0.436206,0.63529 -0.2165491,0.21682 -0.4878099,0.46787 -0.811556,0.75092 -0.3239452,0.28322 -0.6607701,0.55811 -1.0100095,0.82367 -0.3425703,0.26194 -0.6909466,0.5072 -1.0451358,0.73528 -0.3475117,0.22449 -0.6973225,0.42998 -1.0495347,0.61626 -1.0314771,0.54553 -1.9430434,0.84691 -2.7469573,0.92835 -0.7956057,0.0711 -1.4631333,-0.0674 -2.0046111,-0.38853 -0.541546,-0.32786 -0.94947727,-0.83318 -1.22845058,-1.49945 -0.27926607,-0.67344 -0.41611629,-1.50575 -0.41815321,-2.50149 -0.002101,-1.02696 0.13964402,-2.02284 0.42477625,-2.99172 0.28538265,-0.97628 0.69338581,-1.90311 1.23237014,-2.78123 0.539401,-0.8853 1.1999493,-1.70871 1.9931855,-2.47084 0.7995307,-0.76575 1.7076505,-1.44051 2.7299331,-2.02111 0.5615335,-0.31891 1.0783582,-0.57114 1.5482049,-0.75751 0.4696886,-0.19242 0.8814293,-0.33135 1.232817,-0.41768 0.3581921,-0.0961 0.6562431,-0.14866 0.892263,-0.15852 0.2360923,-0.01 0.3999803,0.004 0.4906963,0.0417 0.09771,0.0338 0.167908,0.1187 0.210431,0.25553 0.04252,0.13079 0.06455,0.34947 0.06622,0.66016 0,0 0,1e-4 0,1e-4 z"
         style="font-style:normal;font-variant:normal;font-weight:bold;font-stretch:normal;font-size:19.7555542px;line-height:0;font-family:Calibri;-inkscape-font-specification:'Calibri Bold';fill:#ffffff;stroke-width:0.26458332"
         id="path3866"
         inkscape:connector-curvature="0"
         inkscape:original-d="m 10.446906,264.23161 q 0,0.27975 -0.02894,0.48232 -0.01929,0.20257 -0.06752,0.32797 -0.03858,0.11576 -0.106109,0.16399 -0.05788,0.0482 -0.144694,0.0482 -0.1254011,0 -0.4051428,-0.17364 -0.2797417,-0.17363 -0.7427625,-0.3762 -0.4630208,-0.20257 -1.1093207,-0.3762 -0.6366536,-0.17364 -1.4855251,-0.17364 -0.906749,0 -1.6398653,0.31833 -0.7331163,0.30868 -1.2540147,0.88746 -0.5208984,0.56913 -0.8006401,1.37941 -0.2797418,0.80064 -0.2797418,1.77492 0,1.07073 0.2797418,1.89066 0.289388,0.81029 0.8006401,1.36013 0.5112521,0.54983 1.2250759,0.82958 0.72347,0.27974 1.591634,0.27974 0.4244357,0 0.8392252,-0.0965 0.4147895,-0.0965 0.7717013,-0.28939 v -2.89388 H 5.52731 q -0.1736328,0 -0.2700955,-0.21222 -0.096463,-0.22186 -0.096463,-0.74276 0,-0.2701 0.019293,-0.45338 0.028939,-0.18328 0.07717,-0.28939 0.048231,-0.11575 0.1157552,-0.16398 0.067524,-0.0579 0.1543403,-0.0579 h 4.2154185 q 0.1543403,0 0.2700955,0.0579 0.125401,0.0482 0.212218,0.15434 0.09646,0.10611 0.144694,0.26045 0.04823,0.14469 0.04823,0.33762 v 4.96782 q 0,0.28939 -0.106109,0.51126 -0.09646,0.21221 -0.4147892,0.33762 -0.3086805,0.1254 -0.7717013,0.26045 -0.4630208,0.13504 -0.9646267,0.23151 -0.4919596,0.0965 -1.0032117,0.14469 -0.5016059,0.0482 -1.012858,0.0482 -1.4951714,0 -2.6816622,-0.42443 -1.1768445,-0.43409 -1.9967772,-1.24437 -0.81993267,-0.81994 -1.25401467,-1.98713 -0.434082,-1.17685 -0.434082,-2.66237 0,-1.53376 0.4630208,-2.74919 0.4630208,-1.22508 1.31189227,-2.07395 0.8488715,-0.85851 2.0450085,-1.31189 1.2057834,-0.45337 2.6816622,-0.45337 0.8102864,0 1.4758788,0.11575 0.6655924,0.10611 1.157552,0.2701 0.5016059,0.15434 0.8295789,0.33762 0.3279735,0.18328 0.4533745,0.31832 0.135048,0.13505 0.192925,0.38585 0.05788,0.24116 0.05788,0.72347 z" />
      <path
         d="m 23.25567,263.28905 c -0.003,0.0834 -0.01925,0.15938 -0.04868,0.22797 -0.02917,0.061 -0.09545,0.12503 -0.198963,0.19291 -0.103665,0.0679 -0.254065,0.13854 -0.452402,0.21431 -0.200107,0.0765 -0.465814,0.16671 -0.809165,0.28025 -0.288094,0.0953 -0.514282,0.1661 -0.686116,0.21103 -0.170655,0.0446 -0.306556,0.0669 -0.408334,0.0656 -0.09463,-0.0115 -0.161682,-0.0402 -0.201218,-0.0867 -0.03932,-0.0541 -0.07153,-0.12211 -0.09662,-0.20396 -0.3594,-0.95258 -1.130404,-2.77351 -1.130404,-2.77351 -0.139341,-0.29703 -0.276888,-0.55144 -0.411976,-0.76514 -0.135088,-0.21369 -0.289054,-0.37181 -0.46139,-0.47553 -0.165202,-0.11347 -0.359673,-0.16859 -0.582677,-0.16508 -0.222931,0.004 -0.482122,0.0686 -0.77631,0.19689 -0.275588,0.1309 -0.861835,0.38519 -0.861835,0.38519 -6.21e-4,1.64458 -0.04586,5.43211 -0.04586,5.43211 -7.86e-4,0.0771 -0.02559,0.15787 -0.07434,0.24246 -0.0419,0.0814 -0.114567,0.16594 -0.218035,0.25397 -0.103515,0.0881 -0.241105,0.18505 -0.413081,0.29189 -0.172076,0.10682 -0.391605,0.22588 -0.659493,0.3592 -0.261129,0.12995 -0.480108,0.22901 -0.658658,0.29659 -0.171488,0.064 -0.308432,0.10343 -0.41128,0.11777 -0.102788,0.0144 -0.174684,0.002 -0.215747,-0.0385 -0.04105,-0.0402 -0.06155,-0.0985 -0.06145,-0.17506 0.0089,-2.40234 0.0062,-5.35237 5.96e-4,-7.89837 -0.0053,-2.42763 -0.01204,-4.11796 -0.01204,-4.11796 -5.6e-4,-0.25697 0.0767,-0.47417 0.232035,-0.65311 0.162305,-0.18776 0.360546,-0.33243 0.594275,-0.43438 1.198081,-0.51381 3.572729,-1.39891 3.572729,-1.39891 0.362088,-0.12462 0.663536,-0.21757 0.897326,-0.28162 0.23479,-0.0643 0.448649,-0.11705 0.640579,-0.1591 0.554245,-0.10919 1.052747,-0.14726 1.491206,-0.12113 0.445699,0.0243 0.820695,0.11946 1.121775,0.28076 0.30853,0.15458 0.541818,0.37728 0.698578,0.66869 0.157062,0.28636 0.231126,0.64652 0.222217,1.08904 -0.0075,0.37386 -0.07494,0.73903 -0.201416,1.09388 -0.119384,0.34727 -0.294249,0.68273 -0.524395,1.00693 -0.230233,0.32433 -0.511843,0.6359 -0.845406,0.93704 -0.333637,0.30119 -0.71134,0.58585 -1.134334,0.85669 0.20147,0.0233 0.388391,0.0734 0.560401,0.14979 0.179003,0.0741 0.34316,0.18492 0.49203,0.33266 0.156018,0.13879 0.300483,0.31366 0.433023,0.52556 0.132718,0.20502 0.260583,0.44854 0.383137,0.73226 0.363027,0.79059 1.038759,2.44298 1.038759,2.44298 0.0927,0.25379 0.153657,0.44618 0.182816,0.57184 0.02953,0.11856 0.04287,0.21599 0.04014,0.29175 0,0 2e-6,3e-5 2e-6,3e-5 z m -3.305056,-7.91507 c 0.005,-0.38341 -0.09375,-0.66658 -0.29665,-0.8552 -0.202203,-0.18796 -0.539039,-0.25708 -1.006367,-0.19909 -0.141736,0.0202 -0.305149,0.0542 -0.489659,0.10286 -0.176585,0.0459 -0.42705,0.12768 -0.745846,0.24799 -0.408244,0.16303 -1.257053,0.49577 -1.257053,0.49577 0.0081,1.02456 -0.01342,3.42771 -0.01342,3.42771 0.482977,-0.20455 1.41657,-0.6042 1.41657,-0.6042 0.39495,-0.16108 0.740336,-0.33787 1.037602,-0.53362 0.297243,-0.20212 0.545337,-0.4128 0.744954,-0.63434 0.199623,-0.22778 0.350315,-0.46264 0.452104,-0.70557 0.101745,-0.24281 0.154454,-0.49037 0.157767,-0.7423 0,0 0,-1e-5 0,-1e-5 z"
         style="font-style:normal;font-variant:normal;font-weight:bold;font-stretch:normal;font-size:19.7555542px;line-height:0;font-family:Calibri;-inkscape-font-specification:'Calibri Bold';fill:#ffffff;stroke-width:0.26458332"
         id="path3868"
         inkscape:connector-curvature="0"
         inkscape:original-d="m 22.273229,274.44701 q 0,0.10611 -0.03859,0.18328 -0.03858,0.0675 -0.183279,0.11575 -0.144694,0.0482 -0.424436,0.0675 -0.279742,0.0193 -0.762055,0.0193 -0.405143,0 -0.6463,-0.0193 -0.241157,-0.0193 -0.385851,-0.0675 -0.135047,-0.0579 -0.192925,-0.13504 -0.05788,-0.0868 -0.09646,-0.20258 l -1.118967,-2.78777 q -0.202571,-0.47266 -0.395497,-0.83922 -0.192925,-0.36656 -0.434082,-0.60772 -0.23151,-0.2508 -0.540191,-0.3762 -0.30868,-0.1254 -0.713823,-0.1254 h -0.790994 v 4.75561 q 0,0.0965 -0.06752,0.17363 -0.05788,0.0772 -0.202572,0.1254 -0.144694,0.0482 -0.38585,0.0772 -0.241157,0.0289 -0.617361,0.0289 -0.366558,0 -0.617361,-0.0289 -0.241157,-0.0289 -0.385851,-0.0772 -0.144694,-0.0482 -0.202572,-0.1254 -0.05788,-0.0772 -0.05788,-0.17363 v -11.33437 q 0,-0.42443 0.212218,-0.60771 0.221864,-0.19293 0.540191,-0.19293 h 3.231499 q 0.491959,0 0.810286,0.0193 0.318327,0.0193 0.578776,0.0482 0.752409,0.10611 1.350478,0.36656 0.607714,0.26045 1.022504,0.68488 0.424436,0.41479 0.6463,0.99357 0.221864,0.56913 0.221864,1.31189 0,0.62701 -0.163987,1.1479 -0.15434,0.51126 -0.46302,0.9164 -0.308681,0.40514 -0.762056,0.70418 -0.453374,0.29903 -1.03215,0.48231 0.279742,0.13505 0.520898,0.32797 0.250803,0.19293 0.463021,0.47267 0.221864,0.2701 0.41479,0.62701 0.192925,0.34726 0.376204,0.79099 l 1.051443,2.4598 q 0.144694,0.36656 0.192925,0.54019 0.04823,0.16399 0.04823,0.26045 z m -3.270085,-8.46942 q 0,-0.61736 -0.279741,-1.0418 -0.279742,-0.42443 -0.916396,-0.59807 -0.192925,-0.0482 -0.443728,-0.0772 -0.241157,-0.0289 -0.675239,-0.0289 h -1.138259 v 3.54018 h 1.2926 q 0.540191,0 0.945334,-0.1254 0.405143,-0.13505 0.675238,-0.36656 0.270096,-0.24115 0.405144,-0.56913 0.135047,-0.32797 0.135047,-0.73311 z" />
      <path
         d="m 27.88021,262.34404 c -0.0038,0.0733 -0.03071,0.14209 -0.08065,0.20652 -0.04327,0.0637 -0.116033,0.1201 -0.218459,0.16993 -0.102543,0.0499 -0.237845,0.0972 -0.40685,0.14374 -0.169381,0.0466 -0.383783,0.09 -0.646635,0.13428 -0.256161,0.0431 -0.470187,0.0716 -0.645042,0.0828 -0.167737,0.01 -0.30112,0.007 -0.400953,-0.01 -0.09971,-0.0167 -0.1719,-0.0498 -0.216671,-0.0999 -0.03798,-0.0515 -0.05538,-0.11464 -0.05216,-0.18948 0.111851,-2.46739 0.229163,-5.33576 0.302651,-7.71401 0.06956,-2.25107 0.08488,-3.68833 0.08488,-3.68833 6.92e-4,-0.0483 0.02225,-0.0936 0.06468,-0.13569 0.04937,-0.0427 0.126673,-0.0806 0.23163,-0.11277 0.111795,-0.0327 0.255353,-0.0626 0.429479,-0.0881 0.173781,-0.0253 0.39405,-0.0451 0.657295,-0.0558 0.269966,-0.011 0.492824,-0.009 0.664779,0.002 0.172424,0.011 0.31067,0.0288 0.413526,0.0517 0.103041,0.0229 0.174981,0.0533 0.215612,0.0905 0.04757,0.0373 0.0709,0.0793 0.07002,0.12582 -0.05353,2.84591 -0.231847,6.56996 -0.467137,11.08647 z"
         style="font-style:normal;font-variant:normal;font-weight:bold;font-stretch:normal;font-size:19.7555542px;line-height:0;font-family:Calibri;-inkscape-font-specification:'Calibri Bold';fill:#ffffff;stroke-width:0.26458332"
         id="path3870"
         inkscape:connector-curvature="0"
         inkscape:original-d="m 26.671926,274.42772 q 0,0.0965 -0.06752,0.17363 -0.05788,0.0772 -0.202571,0.1254 -0.144694,0.0482 -0.385851,0.0772 -0.241156,0.0289 -0.617361,0.0289 -0.366558,0 -0.617361,-0.0289 -0.241157,-0.0289 -0.385851,-0.0772 -0.144694,-0.0482 -0.212217,-0.1254 -0.05788,-0.0772 -0.05788,-0.17363 v -11.78774 q 0,-0.0965 0.05788,-0.17363 0.06752,-0.0772 0.212217,-0.1254 0.154341,-0.0482 0.395497,-0.0772 0.241157,-0.0289 0.607715,-0.0289 0.376205,0 0.617361,0.0289 0.241157,0.0289 0.385851,0.0772 0.144694,0.0482 0.202571,0.1254 0.06752,0.0772 0.06752,0.17363 z" />
      <path
         d="m 38.216951,262.69351 c -0.01393,0.18398 -0.03532,0.33772 -0.0641,0.46031 -0.02194,0.11816 -0.05174,0.2115 -0.08937,0.27965 -0.03763,0.0681 -0.08332,0.11433 -0.137095,0.13842 -0.04693,0.0194 -0.09898,0.0209 -0.156196,0.004 -1.1584,-0.32928 -2.459563,-0.62646 -3.912968,-0.8125 -1.320907,-0.16907 -2.39397,-0.1882 -2.39397,-0.1882 -0.217284,-0.006 -0.397257,-0.0758 -0.540894,-0.21254 -0.136424,-0.14367 -0.195344,-0.37166 -0.176556,-0.68192 0.134646,-2.13198 0.281976,-4.63011 0.378707,-6.69035 0.09195,-1.95843 0.120583,-3.22804 0.120583,-3.22804 0.0054,-0.2027 0.0829,-0.33589 0.233259,-0.40154 0.156935,-0.0691 0.34688,-0.087 0.568395,-0.053 1.231515,0.19276 2.560012,0.4846 4.009092,0.93444 1.312533,0.40746 2.336433,0.8284 2.336433,0.8284 0.05736,0.0229 0.10805,0.0541 0.151984,0.0935 0.04393,0.0394 0.08102,0.0934 0.111106,0.1623 0.03022,0.0646 0.05033,0.14275 0.06015,0.23492 0.01632,0.0905 0.02218,0.20152 0.01725,0.33429 -0.0046,0.12396 -0.01839,0.22755 -0.04111,0.30986 -0.01619,0.0804 -0.04141,0.14175 -0.07553,0.18353 -0.03413,0.0418 -0.07408,0.0676 -0.119835,0.0773 -0.04556,0.005 -0.09696,-0.004 -0.154309,-0.0265 -1.462236,-0.57139 -4.498903,-1.37849 -4.498903,-1.37849 -0.01805,0.71415 -0.114427,2.41314 -0.114427,2.41314 1.298475,0.25617 3.809343,1.03345 3.809343,1.03345 0.05758,0.0202 0.107816,0.054 0.150624,0.10121 0.04952,0.0443 0.08835,0.10356 0.116366,0.17792 0.02835,0.0691 0.04563,0.15859 0.0517,0.26901 0.01279,0.10747 0.01439,0.23594 0.0046,0.38656 -0.01011,0.15603 -0.0283,0.2833 -0.05433,0.38052 -0.01966,0.0995 -0.04771,0.17718 -0.08407,0.23256 -0.036,0.0499 -0.08048,0.0801 -0.133461,0.0906 -0.04659,0.0127 -0.09863,0.009 -0.156187,-0.01 -1.240872,-0.40395 -3.802741,-0.95949 -3.802741,-0.95949 -0.05216,1.02392 -0.218848,3.4164 -0.218848,3.4164 1.533185,0.20782 4.506791,1.01138 4.506791,1.01138 0.0572,0.0182 0.106657,0.0532 0.148307,0.10487 0.04847,0.0475 0.0858,0.11367 0.111904,0.19866 0.02612,0.085 0.04082,0.19195 0.04405,0.3214 0.01005,0.12526 0.0082,0.27926 -0.0058,0.46321 0,0 -6e-6,8e-5 -6e-6,8e-5 z"
         style="font-style:normal;font-variant:normal;font-weight:bold;font-stretch:normal;font-size:19.7555542px;line-height:0;font-family:Calibri;-inkscape-font-specification:'Calibri Bold';fill:#ffffff;stroke-width:0.26458332"
         id="path3872"
         inkscape:connector-curvature="0"
         inkscape:original-d="m 36.810152,273.78142 q 0,0.27974 -0.02894,0.47266 -0.01929,0.18328 -0.06752,0.29904 -0.04823,0.11575 -0.125402,0.17363 -0.06752,0.0482 -0.15434,0.0482 h -6.270073 q -0.318327,0 -0.540191,-0.18328 -0.212218,-0.19292 -0.212218,-0.61736 v -10.88099 q 0,-0.42443 0.212218,-0.60771 0.221864,-0.19293 0.540191,-0.19293 h 6.231488 q 0.08682,0 0.15434,0.0482 0.06752,0.0482 0.115755,0.17363 0.04823,0.11575 0.06752,0.30868 0.02894,0.18328 0.02894,0.47267 0,0.27009 -0.02894,0.46302 -0.01929,0.18328 -0.06752,0.29903 -0.04823,0.11576 -0.115755,0.17363 -0.06752,0.0482 -0.15434,0.0482 H 31.93879 v 3.04823 h 3.77169 q 0.08682,0 0.15434,0.0579 0.07717,0.0482 0.125402,0.16399 0.04823,0.10611 0.06752,0.29903 0.02894,0.18328 0.02894,0.45338 0,0.27974 -0.02894,0.46302 -0.01929,0.18328 -0.06752,0.29903 -0.04823,0.10611 -0.125402,0.15434 -0.06752,0.0482 -0.15434,0.0482 h -3.77169 v 3.52089 h 4.49516 q 0.08682,0 0.15434,0.0579 0.07717,0.0482 0.125402,0.16399 0.04823,0.11575 0.06752,0.30868 0.02894,0.18328 0.02894,0.46302 z" />
      <path
         d="m 47.576811,258.75209 c -0.0046,0.13785 -0.01772,0.24989 -0.03903,0.33562 -0.01523,0.0849 -0.04174,0.14394 -0.07942,0.17686 -0.03177,0.0367 -0.06896,0.0558 -0.11156,0.0571 -0.0426,0.001 -0.09059,-0.0151 -0.143984,-0.0492 -1.245942,-0.78942 -3.815086,-2.31979 -3.815086,-2.31979 -0.02559,0.77331 -0.137896,2.50102 -0.137896,2.50102 1.223483,0.68922 3.597038,2.16555 3.597038,2.16555 0.05373,0.0343 0.100776,0.0772 0.141117,0.12852 0.04034,0.0514 0.07374,0.11627 0.100131,0.19475 0.03236,0.0823 0.05164,0.17689 0.05774,0.28401 0.01207,0.11096 0.01366,0.24145 0.0046,0.39205 -0.0091,0.15064 -0.02575,0.27129 -0.04994,0.36128 -0.01821,0.0938 -0.04737,0.16263 -0.08745,0.20627 -0.0341,0.0474 -0.0731,0.0734 -0.117001,0.0777 -0.04357,-7.9e-4 -0.09234,-0.0181 -0.146317,-0.0519 -1.181831,-0.73289 -3.609583,-2.12356 -3.609583,-2.12356 -0.07657,1.223 -0.303881,4.08759 -0.303881,4.08759 -0.005,0.0659 -0.02792,0.11406 -0.0687,0.14459 -0.04081,0.0306 -0.112035,0.0406 -0.213914,0.0307 -0.09532,-0.0131 -0.220883,-0.0461 -0.377539,-0.0981 -0.157038,-0.0522 -0.355516,-0.1315 -0.598786,-0.23675 -0.236949,-0.10251 -0.435089,-0.19492 -0.596401,-0.28069 -0.154823,-0.0831 -0.277692,-0.15822 -0.369267,-0.22715 -0.09099,-0.0751 -0.156437,-0.14601 -0.196447,-0.21335 -0.03372,-0.0649 -0.04794,-0.13163 -0.04265,-0.20017 0.15501,-1.94078 0.335518,-4.27925 0.455246,-6.20827 0.114757,-1.84893 0.155556,-3.11417 0.155556,-3.11417 0.007,-0.19296 0.07981,-0.29563 0.219197,-0.30961 0.14551,-0.0152 0.320889,0.0293 0.524994,0.13376 1.894486,0.97675 5.525443,3.19868 5.525443,3.19868 0.05331,0.0333 0.100311,0.0766 0.14099,0.12972 0.0408,0.0486 0.07519,0.11171 0.103081,0.18941 0.03393,0.0769 0.05542,0.16694 0.06433,0.2703 0.01482,0.1071 0.02001,0.22948 0.01538,0.36731 0,0 4e-6,2e-5 4e-6,2e-5 z"
         style="font-style:normal;font-variant:normal;font-weight:bold;font-stretch:normal;font-size:19.7555542px;line-height:0;font-family:Calibri;-inkscape-font-specification:'Calibri Bold';fill:#ffffff;stroke-width:0.26458332"
         id="path3874"
         inkscape:connector-curvature="0"
         inkscape:original-d="m 46.060924,263.33451 q 0,0.28939 -0.02894,0.49196 -0.01929,0.19293 -0.07717,0.30868 -0.04823,0.11576 -0.115755,0.17363 -0.06752,0.0579 -0.15434,0.0579 h -4.080371 v 3.3569 h 3.829568 q 0.08682,0 0.15434,0.0482 0.06752,0.0482 0.115755,0.16399 0.05788,0.11576 0.07717,0.30868 0.02894,0.19293 0.02894,0.48231 0,0.28939 -0.02894,0.48232 -0.01929,0.19292 -0.07717,0.31832 -0.04823,0.12541 -0.115755,0.18328 -0.06752,0.0482 -0.15434,0.0482 h -3.829568 v 4.6495 q 0,0.10611 -0.05788,0.18328 -0.05788,0.0772 -0.212217,0.13505 -0.144694,0.0482 -0.385851,0.0772 -0.241157,0.0289 -0.617361,0.0289 -0.366558,0 -0.617361,-0.0289 -0.241157,-0.0289 -0.385851,-0.0772 -0.144694,-0.0579 -0.212218,-0.13505 -0.05788,-0.0772 -0.05788,-0.18328 v -11.31507 q 0,-0.42443 0.212217,-0.60771 0.221865,-0.19293 0.540191,-0.19293 h 5.874577 q 0.08682,0 0.15434,0.0579 0.06752,0.0482 0.115755,0.17363 0.05788,0.11576 0.07717,0.31833 0.02894,0.20257 0.02894,0.49196 z" />
      <path
         d="m 55.934415,272.14062 c -0.0043,0.15154 -0.01698,0.27525 -0.03801,0.3709 -0.01487,0.0935 -0.03824,0.16413 -0.07014,0.21177 -0.0319,0.0476 -0.07239,0.0749 -0.121457,0.0816 -0.04289,0.005 -0.09143,-0.007 -0.14558,-0.0356 -1.931697,-0.99978 -5.857048,-3.41383 -5.857048,-3.41383 -0.198875,-0.12069 -0.364389,-0.27472 -0.496733,-0.46298 -0.125931,-0.19 -0.181312,-0.40555 -0.166554,-0.64467 0.197869,-3.04886 0.430954,-8.46438 0.430954,-8.46438 0.006,-0.20643 0.07424,-0.31296 0.205057,-0.32122 0.136692,-0.009 0.301318,0.0459 0.493594,0.16559 1.019726,0.63888 2.276097,1.40544 3.514087,2.0692 1.166731,0.62556 2.098186,1.02517 2.098186,1.02517 0.05215,0.0228 0.0983,0.0559 0.138479,0.0997 0.04017,0.0438 0.07423,0.10611 0.102167,0.18711 0.02801,0.0757 0.047,0.16876 0.0569,0.27914 0.01579,0.10756 0.0224,0.24036 0.01971,0.39795 -0.0025,0.14708 -0.01345,0.26908 -0.03277,0.36602 -0.01342,0.0943 -0.03526,0.1662 -0.0655,0.21573 -0.03024,0.0495 -0.06602,0.0806 -0.107313,0.0932 -0.04119,0.007 -0.08794,-10e-4 -0.140242,-0.0255 -1.333629,-0.61354 -4.019198,-2.22577 -4.019198,-2.22577 -0.01442,0.77644 -0.08364,2.32081 -0.08364,2.32081 1.152083,0.74141 3.424377,2.02502 3.424377,2.02502 0.0526,0.0279 0.09893,0.0677 0.139016,0.11973 0.04607,0.05 0.0829,0.11305 0.110493,0.18948 0.02772,0.0713 0.04606,0.161 0.05497,0.26912 0.01491,0.10606 0.0204,0.23058 0.0164,0.37347 -0.0041,0.148 -0.01643,0.26591 -0.03683,0.35361 -0.01453,0.0908 -0.0374,0.15907 -0.06859,0.20473 -0.03104,0.0406 -0.07048,0.0611 -0.118284,0.0614 -0.04192,0.003 -0.08936,-0.009 -0.142275,-0.0378 -1.124061,-0.60088 -3.44491,-2.0592 -3.44491,-2.0592 -0.03279,0.91108 -0.137362,2.79827 -0.137362,2.79827 1.397074,0.87802 4.161791,2.42731 4.161791,2.42731 0.0537,0.0281 0.100974,0.0685 0.141843,0.12123 0.04699,0.0507 0.08453,0.11474 0.112601,0.19245 0.02807,0.0777 0.04661,0.17159 0.0556,0.28187 0.01512,0.10813 0.02054,0.23785 0.01622,0.38936 0,0 -2e-6,6e-5 -2e-6,6e-5 z"
         style="font-style:normal;font-variant:normal;font-weight:bold;font-stretch:normal;font-size:19.7555542px;line-height:0;font-family:Calibri;-inkscape-font-specification:'Calibri Bold';fill:#ffffff;stroke-width:0.26458332"
         id="path3876"
         inkscape:connector-curvature="0"
         inkscape:original-d="m 55.523911,273.78142 q 0,0.27974 -0.02894,0.47266 -0.01929,0.18328 -0.06752,0.29904 -0.04823,0.11575 -0.125401,0.17363 -0.06752,0.0482 -0.154341,0.0482 h -6.270073 q -0.318327,0 -0.540191,-0.18328 -0.212218,-0.19292 -0.212218,-0.61736 v -10.88099 q 0,-0.42443 0.212218,-0.60771 0.221864,-0.19293 0.540191,-0.19293 h 6.231488 q 0.08682,0 0.154341,0.0482 0.06752,0.0482 0.115755,0.17363 0.04823,0.11575 0.06752,0.30868 0.02894,0.18328 0.02894,0.47267 0,0.27009 -0.02894,0.46302 -0.01929,0.18328 -0.06752,0.29903 -0.04823,0.11576 -0.115755,0.17363 -0.06752,0.0482 -0.154341,0.0482 h -4.456575 v 3.04823 h 3.77169 q 0.08682,0 0.154341,0.0579 0.07717,0.0482 0.125401,0.16399 0.04823,0.10611 0.06752,0.29903 0.02894,0.18328 0.02894,0.45338 0,0.27974 -0.02894,0.46302 -0.01929,0.18328 -0.06752,0.29903 -0.04823,0.10611 -0.125401,0.15434 -0.06752,0.0482 -0.154341,0.0482 h -3.77169 v 3.52089 h 4.49516 q 0.08682,0 0.154341,0.0579 0.07717,0.0482 0.125401,0.16399 0.04823,0.11575 0.06752,0.30868 0.02894,0.18328 0.02894,0.46302 z" />
      <path
         d="m 67.031907,274.44701 c 0,0.0707 -0.01308,0.136 -0.03923,0.19554 -0.0261,0.0529 -0.08829,0.11071 -0.186181,0.17105 -0.09722,0.0591 -0.241276,0.12117 -0.42899,0.17878 -0.186348,0.0572 -0.445452,0.12057 -0.765241,0.17278 -0.268045,0.0438 -0.486324,0.0628 -0.643989,0.067 -0.159302,0.004 -0.287346,-0.007 -0.382434,-0.0306 -0.08901,-0.0298 -0.152663,-0.0681 -0.190722,-0.11351 -0.03812,-0.0514 -0.06989,-0.11212 -0.09529,-0.18195 -0.359707,-0.83194 -1.094491,-2.49973 -1.094491,-2.49973 -0.130721,-0.28149 -0.257937,-0.53149 -0.381609,-0.75031 -0.123738,-0.21895 -0.262553,-0.40103 -0.416527,-0.54875 -0.147839,-0.15325 -0.319714,-0.27175 -0.515934,-0.36 -0.196321,-0.0883 -0.422212,-0.14637 -0.678493,-0.18108 -0.240672,-0.024 -0.747373,-0.12556 -0.747373,-0.12556 -0.0027,1.35844 -0.0343,4.03275 -0.0343,4.03275 -4.32e-4,0.0546 -0.0223,0.098 -0.06561,0.12989 -0.03714,0.0335 -0.101936,0.0513 -0.194113,0.0519 -0.09205,6.9e-4 -0.215134,-0.0137 -0.368123,-0.0453 -0.152778,-0.0316 -0.349227,-0.0871 -0.586751,-0.17016 -0.23113,-0.0808 -0.427097,-0.16215 -0.584311,-0.23844 -0.151553,-0.0742 -0.273108,-0.14415 -0.363469,-0.20732 -0.09055,-0.0633 -0.153679,-0.12412 -0.189257,-0.18157 -0.03561,-0.0575 -0.05292,-0.11285 -0.05197,-0.16587 0.0324,-1.5421 0.07563,-3.86987 0.106278,-5.80763 0.03078,-1.94635 0.04874,-3.56366 0.04874,-3.56366 0.003,-0.24128 0.06955,-0.39589 0.199791,-0.46702 0.136254,-0.0752 0.301115,-0.0903 0.49538,-0.0474 0.995039,0.22853 2.997273,0.26212 2.997273,0.26212 0.300176,-0.0167 0.57405,-0.0404 0.767015,-0.0549 0.199857,-0.015 0.388084,-0.0314 0.552455,-0.0451 0.481084,-0.0259 0.915826,-0.0303 1.305706,0.008 0.39619,0.0361 0.731394,0.12109 1.00652,0.27804 0.281279,0.14775 0.496474,0.36677 0.64534,0.67393 0.148628,0.30033 0.223279,0.69293 0.223154,1.18201 -1.04e-4,0.41206 -0.05545,0.81654 -0.165764,1.20636 -0.103743,0.38031 -0.259279,0.74506 -0.465321,1.0828 -0.205999,0.33768 -0.459557,0.64756 -0.758881,0.91685 -0.299406,0.26935 -0.638283,0.49338 -1.015412,0.66176 0.182129,0.0562 0.352227,0.12772 0.510381,0.21709 0.164469,0.0881 0.316758,0.20268 0.456893,0.34619 0.146485,0.13595 0.283855,0.29965 0.412076,0.49304 0.128193,0.18722 0.253599,0.40538 0.376123,0.65568 0.358965,0.6925 1.061566,2.08317 1.061566,2.08317 0.09789,0.21128 0.163362,0.36986 0.196047,0.47477 0.03271,0.0986 0.04906,0.18019 0.04906,0.24449 -3e-6,1e-5 -5e-6,2e-5 -8e-6,3e-5 m -3.25392,-7.25137 c 10e-4,-0.38427 -0.08868,-0.68888 -0.268014,-0.91982 -0.180302,-0.23218 -0.471843,-0.36352 -0.877289,-0.4299 -0.122795,-0.0174 -0.26294,-0.0291 -0.421723,-0.0377 -0.157129,-0.009 -0.360775,-0.008 -0.63796,-0.0104 -0.347937,0.007 -1.065461,-0.0628 -1.065461,-0.0628 2.3e-4,1.06226 -0.02748,3.08044 -0.02748,3.08044 0.413273,0.0786 1.218873,0.13914 1.218873,0.13914 0.341664,0.0196 0.642866,-0.0168 0.901977,-0.10071 0.259107,-0.0897 0.47653,-0.21855 0.650732,-0.37837 0.174285,-0.16577 0.305747,-0.36003 0.39354,-0.57627 0.08787,-0.21643 0.132152,-0.45209 0.132809,-0.70355 0,0 0,-10e-6 0,-10e-6 z"
         style="font-style:normal;font-variant:normal;font-weight:bold;font-stretch:normal;font-size:19.7555542px;line-height:0;font-family:Calibri;-inkscape-font-specification:'Calibri Bold';fill:#ffffff;stroke-width:0.26458332"
         id="path3878"
         inkscape:connector-curvature="0"
         inkscape:original-d="m 67.031907,274.44701 q 0,0.10611 -0.03858,0.18328 -0.03859,0.0675 -0.183279,0.11575 -0.144694,0.0482 -0.424436,0.0675 -0.279741,0.0193 -0.762055,0.0193 -0.405143,0 -0.6463,-0.0193 -0.241156,-0.0193 -0.38585,-0.0675 -0.135048,-0.0579 -0.192926,-0.13504 -0.05788,-0.0868 -0.09646,-0.20258 l -1.118967,-2.78777 q -0.202572,-0.47266 -0.395497,-0.83922 -0.192926,-0.36656 -0.434082,-0.60772 -0.231511,-0.2508 -0.540191,-0.3762 -0.308681,-0.1254 -0.713824,-0.1254 h -0.790994 v 4.75561 q 0,0.0965 -0.06752,0.17363 -0.05788,0.0772 -0.202571,0.1254 -0.144694,0.0482 -0.385851,0.0772 -0.241157,0.0289 -0.617361,0.0289 -0.366558,0 -0.617361,-0.0289 -0.241157,-0.0289 -0.385851,-0.0772 -0.144694,-0.0482 -0.202571,-0.1254 -0.05788,-0.0772 -0.05788,-0.17363 v -11.33437 q 0,-0.42443 0.212218,-0.60771 0.221864,-0.19293 0.540191,-0.19293 h 3.231499 q 0.49196,0 0.810287,0.0193 0.318326,0.0193 0.578776,0.0482 0.752408,0.10611 1.350477,0.36656 0.607715,0.26045 1.022504,0.68488 0.424436,0.41479 0.6463,0.99357 0.221864,0.56913 0.221864,1.31189 0,0.62701 -0.163986,1.1479 -0.15434,0.51126 -0.463021,0.9164 -0.308681,0.40514 -0.762055,0.70418 -0.453375,0.29903 -1.032151,0.48231 0.279742,0.13505 0.520899,0.32797 0.250803,0.19293 0.463021,0.47267 0.221864,0.2701 0.414789,0.62701 0.192925,0.34726 0.376204,0.79099 l 1.051444,2.4598 q 0.144694,0.36656 0.192925,0.54019 0.04823,0.16399 0.04823,0.26045 z m -3.270084,-8.46942 q 0,-0.61736 -0.279742,-1.0418 -0.279742,-0.42443 -0.916395,-0.59807 -0.192926,-0.0482 -0.443729,-0.0772 -0.241156,-0.0289 -0.675238,-0.0289 h -1.13826 v 3.54018 h 1.2926 q 0.540191,0 0.945334,-0.1254 0.405143,-0.13505 0.675239,-0.36656 0.270095,-0.24115 0.405143,-0.56913 0.135048,-0.32797 0.135048,-0.73311 z" />
      <path
         d="m 9.2076226,283.47072 c -0.00249,0.18437 -0.011383,0.345 -0.02652,0.4822 -0.00847,0.1272 -0.02335,0.24209 -0.044582,0.3448 -0.021116,0.0954 -0.048643,0.18241 -0.082543,0.26097 -0.033889,0.0785 -0.087676,0.17582 -0.1612766,0.29131 -0.073268,0.10797 -0.2164152,0.26942 -0.4280079,0.47989 -0.2049914,0.20784 -0.4596868,0.4299 -0.7622809,0.66174 -0.295882,0.22261 -0.6380122,0.44094 -1.0238593,0.65005 -0.3794217,0.20691 -0.7913632,0.38063 -1.2338524,0.51631 -0.866519,0.26571 -1.6433191,0.32576 -2.3362532,0.2011 -0.6922634,-0.12453 -1.280779,-0.43438 -1.7659563,-0.90124 -0.48487435,-0.4732 -0.85832639,-1.10588 -1.1173896,-1.87351 -0.25965475,-0.76938 -0.3892627,-1.67689 -0.39123603,-2.73078 -0.001645,-1.07513 0.1371606,-2.05321 0.41358409,-2.9677 0.27614884,-0.91359 0.66331021,-1.75005 1.16212614,-2.52261 0.4986285,-0.77227 1.1011899,-1.48019 1.8096676,-2.12161 0.7150553,-0.64449 1.5126514,-1.20388 2.3921605,-1.65864 0.3575334,-0.18486 0.7031869,-0.3335 1.0374671,-0.44357 0.3343096,-0.11007 0.6426346,-0.18516 0.9255155,-0.22363 0.2894138,-0.0495 0.549087,-0.0643 0.7792099,-0.0435 0.2300531,0.0209 0.3893743,0.0613 0.4778775,0.12076 0.095141,0.0483 0.1598473,0.0979 0.1941016,0.14842 0.034258,0.0505 0.061934,0.12374 0.083015,0.21972 0.021081,0.096 0.035564,0.21472 0.04344,0.35628 0.014602,0.13802 0.022714,0.31416 0.0243,0.52855 0.0017,0.22972 -0.00365,0.42881 -0.01596,0.59684 -0.012315,0.16805 -0.034929,0.31064 -0.067786,0.42754 -0.032859,0.11693 -0.072583,0.2103 -0.1191636,0.28012 -0.046583,0.0698 -0.099986,0.11996 -0.1602292,0.15043 -0.1004437,0.0508 -0.2279327,0.0498 -0.3828072,-0.002 -0.1549795,-0.0595 -0.3566551,-0.10628 -0.6053325,-0.14028 -0.2422232,-0.045 -0.5335247,-0.0449 -0.874696,-0.002 -0.3349922,0.0322 -0.7332396,0.16432 -1.1970266,0.38908 -0.509169,0.24675 -0.9623559,0.57726 -1.3592607,0.98659 -0.3905587,0.39933 -0.7231546,0.86349 -0.9984941,1.39243 -0.2689758,0.51939 -0.4717974,1.09093 -0.6092557,1.71947 -0.1375053,0.62875 -0.2034446,1.29919 -0.1983748,2.01935 0.00555,0.789 0.083914,1.45125 0.2360111,1.99128 0.158477,0.53095 0.3779859,0.94761 0.6586067,1.24533 0.2871214,0.29591 0.6296035,0.48222 1.0274445,0.55115 0.4044464,0.06 0.8585419,0.008 1.3625902,-0.16513 0.4579368,-0.15709 0.85569,-0.35955 1.190831,-0.60113 0.3353122,-0.24888 0.6226899,-0.4964 0.8602497,-0.73756 0.244096,-0.24375 0.4431912,-0.45866 0.5952405,-0.63986 0.1590594,-0.18443 0.2811571,-0.29549 0.3668867,-0.33177 0.065864,-0.0279 0.1184043,-0.0353 0.1576553,-0.0222 0.039244,0.0131 0.071614,0.0589 0.097067,0.13725 0.025447,0.0784 0.043897,0.19684 0.055213,0.35487 0.011391,0.1505 0.015474,0.35949 0.011884,0.62494 0,0 -3e-7,-4e-5 -3e-7,-4e-5 z"
         style="font-style:normal;font-variant:normal;font-weight:bold;font-stretch:normal;font-size:19.7555542px;line-height:0;font-family:Calibri;-inkscape-font-specification:'Calibri Bold';fill:#ffffff;stroke-width:0.26458332"
         id="path3880"
         inkscape:connector-curvature="0"
         inkscape:original-d="m 9.0674899,286.11348 q 0,0.24116 -0.019293,0.41479 -0.00965,0.16399 -0.038585,0.28939 -0.028939,0.11575 -0.07717,0.20257 -0.048231,0.0868 -0.1543402,0.20257 -0.106109,0.10611 -0.4147895,0.27974 -0.2990343,0.17364 -0.7427625,0.33762 -0.434082,0.15434 -1.0032118,0.26045 -0.5594834,0.10611 -1.2154296,0.10611 -1.2829535,0 -2.315104,-0.3955 -1.0321505,-0.39549 -1.7556205,-1.17684 -0.72347003,-0.79099 -1.1093207,-1.96784 -0.38585067,-1.17684 -0.38585067,-2.73954 0,-1.59163 0.42443574,-2.82635 0.42443573,-1.23473 1.18649083,-2.07395 0.762055,-0.83923 1.8231444,-1.27331 1.0707356,-0.43408 2.3536891,-0.43408 0.5208984,0 1.0032117,0.0868 0.4823133,0.0868 0.8874565,0.23152 0.4147895,0.13504 0.7427626,0.31832 0.327973,0.18328 0.4533745,0.31833 0.1350477,0.1254 0.1832791,0.21222 0.048231,0.0868 0.07717,0.22186 0.028939,0.13505 0.038585,0.31833 0.019292,0.18328 0.019292,0.45337 0,0.28939 -0.019292,0.49196 -0.019293,0.20257 -0.067524,0.32797 -0.048231,0.12541 -0.1157552,0.18328 -0.067524,0.0579 -0.1543403,0.0579 -0.144694,0 -0.3665581,-0.16398 -0.2218641,-0.17364 -0.578776,-0.37621 -0.3472656,-0.21222 -0.8392252,-0.3762 -0.4823133,-0.17364 -1.157552,-0.17364 -0.7427626,0 -1.3311848,0.30868 -0.578776,0.29904 -0.9935655,0.86817 -0.4051432,0.55948 -0.6173611,1.36012 -0.2122178,0.80064 -0.2122178,1.80385 0,1.09968 0.2218641,1.90996 0.2315104,0.80064 0.6462999,1.32154 0.4244357,0.5209 1.012858,0.78135 0.5980685,0.2508 1.3408311,0.2508 0.6752386,0 1.1671982,-0.15434 0.4919596,-0.16398 0.8392252,-0.35691 0.3569119,-0.19292 0.578776,-0.34726 0.2315104,-0.15434 0.3569119,-0.15434 0.096463,0 0.1543403,0.0386 0.057878,0.0386 0.096463,0.15434 0.038585,0.11576 0.057878,0.32797 0.019293,0.20258 0.019293,0.54984 z" />
      <path
         d="m 18.050644,280.58218 c -0.0077,0.22915 -0.02412,0.42637 -0.04922,0.59274 -0.0183,0.15614 -0.04567,0.29292 -0.08207,0.41092 -0.03613,0.11051 -0.08119,0.19866 -0.135105,0.26483 -0.04737,0.0635 -0.103793,0.10874 -0.169214,0.13594 -1.934742,0.81643 -5.824475,2.5193 -5.824475,2.5193 -0.215817,0.0927 -0.397446,0.10281 -0.544487,0.0298 -0.14041,-0.0831 -0.206795,-0.28424 -0.199683,-0.6068 0.05898,-2.41755 0.08493,-5.29654 0.08743,-8.47936 0.0023,-2.9032 -0.01296,-5.16328 -0.01296,-5.16328 -3.18e-4,-0.077 0.01977,-0.1571 0.0603,-0.24037 0.04732,-0.0869 0.121932,-0.17687 0.223856,-0.26973 0.101876,-0.0928 0.238036,-0.19628 0.408264,-0.30985 0.176902,-0.11702 0.395449,-0.24437 0.654594,-0.38052 0.266162,-0.13983 0.484773,-0.24206 0.655548,-0.30736 0.170763,-0.0653 0.307446,-0.10457 0.409843,-0.11823 0.102418,-0.0137 0.174035,2.4e-4 0.214812,0.0417 0.04762,0.038 0.07125,0.0961 0.07095,0.17425 -0.0028,2.16227 -0.02014,5.04722 -0.05593,7.78983 -0.03416,2.61761 -0.08187,4.60432 -0.08187,4.60432 1.349568,-0.59471 4.015509,-1.76427 4.015509,-1.76427 0.06571,-0.0277 0.120826,-0.0277 0.16536,-1.1e-4 0.05134,0.017 0.09183,0.0694 0.121454,0.1569 0.02987,0.0797 0.04874,0.19834 0.0566,0.35522 0.01466,0.14638 0.01818,0.33491 0.0105,0.56411 0,0 3e-6,-5e-5 3e-6,-5e-5 z"
         style="font-style:normal;font-variant:normal;font-weight:bold;font-stretch:normal;font-size:19.7555542px;line-height:0;font-family:Calibri;-inkscape-font-specification:'Calibri Bold';fill:#ffffff;stroke-width:0.26458332"
         id="path3882"
         inkscape:connector-curvature="0"
         inkscape:original-d="m 17.74913,286.94306 q 0,0.28939 -0.02894,0.49196 -0.01929,0.19292 -0.06752,0.32797 -0.04823,0.1254 -0.125402,0.18328 -0.06752,0.0579 -0.163986,0.0579 h -5.720237 q -0.318326,0 -0.540191,-0.18328 -0.212217,-0.19293 -0.212217,-0.61736 v -11.33436 q 0,-0.0965 0.05788,-0.17364 0.06752,-0.0772 0.212218,-0.1254 0.144694,-0.0482 0.385851,-0.0772 0.250803,-0.0289 0.617361,-0.0289 0.376204,0 0.617361,0.0289 0.241157,0.0289 0.385851,0.0772 0.144694,0.0482 0.202571,0.1254 0.06752,0.0772 0.06752,0.17364 v 10.04176 h 3.926031 q 0.09646,0 0.163986,0.0579 0.07717,0.0482 0.125402,0.17363 0.04823,0.11575 0.06752,0.31833 0.02894,0.19292 0.02894,0.48231 z" />
      <path
         d="m 29.655701,272.87825 c -0.05092,0.94481 -0.207849,1.79816 -0.470786,2.56467 -0.263205,0.76729 -0.624911,1.43038 -1.088079,2.00619 -0.463213,0.57588 -1.023252,1.05504 -1.683379,1.45911 -0.659157,0.40347 -1.412967,0.72032 -2.258276,0.96695 -0.794072,0.23169 -1.502884,0.35266 -2.126817,0.34498 -0.62374,-0.0152 -1.145258,-0.1685 -1.565937,-0.47903 -0.420589,-0.31048 -0.736441,-0.77505 -0.94843,-1.40903 -0.204965,-0.64392 -0.292763,-1.46678 -0.262089,-2.47472 0.05726,-1.70326 0.119926,-3.92276 0.173623,-6.03797 0.05099,-2.00844 0.08457,-3.55542 0.08457,-3.55542 0.0019,-0.0788 0.02402,-0.15775 0.0665,-0.23677 0.04246,-0.079 0.115446,-0.15836 0.218864,-0.23738 0.110175,-0.0816 0.25119,-0.16709 0.422446,-0.255 0.170994,-0.0877 0.390511,-0.18107 0.656235,-0.27649 0.258988,-0.093 0.473868,-0.15577 0.643204,-0.19037 0.169489,-0.0346 0.304848,-0.0486 0.405545,-0.0432 0.100782,0.005 0.170549,0.033 0.209241,0.0823 0.04551,0.0471 0.06692,0.1098 0.0643,0.18803 -0.04703,1.56736 -0.122649,3.73708 -0.197364,5.77583 -0.072,1.96461 -0.132614,3.52137 -0.132614,3.52137 -0.02334,0.62835 0.01892,1.1493 0.126184,1.565 0.107609,0.40782 0.270225,0.71803 0.487804,0.93531 0.224127,0.2151 0.493145,0.34459 0.807159,0.39322 0.32084,0.0387 0.680148,-0.001 1.077928,-0.11531 0.404228,-0.11601 0.769165,-0.28765 1.094775,-0.51854 0.325716,-0.23097 0.605474,-0.51188 0.839845,-0.8475 0.234734,-0.34354 0.420566,-0.73704 0.557968,-1.18477 0.144248,-0.45694 0.229938,-0.95802 0.256896,-1.50532 0.03293,-0.62762 0.270334,-5.23948 0.303268,-5.8671 0.09972,-1.93493 0.1742,-3.40662 0.1742,-3.40662 0.0039,-0.0758 0.02752,-0.14664 0.07073,-0.21231 0.04319,-0.0657 0.115899,-0.12388 0.217958,-0.17374 0.101958,-0.0498 0.237213,-0.0958 0.404897,-0.13602 0.174174,-0.0409 0.388417,-0.0731 0.640675,-0.0937 0.252092,-0.0206 0.457945,-0.0226 0.615271,-0.01 0.164241,0.0126 0.295148,0.0361 0.392024,0.0687 0.09699,0.0326 0.163569,0.0781 0.199644,0.13566 0.0361,0.0576 0.05192,0.12342 0.04749,0.19739 -0.171434,2.86045 -0.359728,5.98597 -0.525469,9.06136 z"
         style="font-style:normal;font-variant:normal;font-weight:bold;font-stretch:normal;font-size:19.7555542px;line-height:0;font-family:Calibri;-inkscape-font-specification:'Calibri Bold';fill:#ffffff;stroke-width:0.26458332"
         id="path3884"
         inkscape:connector-curvature="0"
         inkscape:original-d="m 28.987032,283.35465 q 0,1.1479 -0.337619,2.05465 -0.33762,0.90675 -0.993566,1.53376 -0.655946,0.62701 -1.620573,0.95498 -0.964626,0.32797 -2.218641,0.32797 -1.176844,0 -2.112532,-0.28938 -0.935688,-0.29904 -1.581988,-0.89711 -0.6463,-0.59807 -0.993566,-1.48552 -0.337619,-0.89711 -0.337619,-2.09324 v -7.59161 q 0,-0.0965 0.05788,-0.17364 0.05788,-0.0772 0.202571,-0.1254 0.154341,-0.0482 0.395497,-0.0772 0.241157,-0.0289 0.617361,-0.0289 0.366558,0 0.607715,0.0289 0.241157,0.0289 0.385851,0.0772 0.144694,0.0482 0.202571,0.1254 0.06752,0.0772 0.06752,0.17364 v 7.36974 q 0,0.74277 0.183279,1.2926 0.183279,0.54019 0.520899,0.89711 0.347265,0.35691 0.819932,0.54019 0.482314,0.17363 1.070736,0.17363 0.598069,0 1.070736,-0.18328 0.472667,-0.18328 0.80064,-0.53054 0.327973,-0.35692 0.501606,-0.86817 0.183279,-0.5209 0.183279,-1.17684 v -7.51444 q 0,-0.0965 0.05788,-0.17364 0.05788,-0.0772 0.202572,-0.1254 0.144694,-0.0482 0.385851,-0.0772 0.250802,-0.0289 0.617361,-0.0289 0.366558,0 0.598068,0.0289 0.241157,0.0289 0.385851,0.0772 0.144694,0.0482 0.202571,0.1254 0.05788,0.0772 0.05788,0.17364 z" />
      <path
         d="m 41.282734,274.99607 c -0.02701,0.48912 -0.110214,0.91656 -0.250553,1.2842 -0.14037,0.36772 -0.325085,0.67873 -0.555143,0.93542 -0.223752,0.25826 -0.489441,0.46596 -0.798215,0.62645 -0.302432,0.16183 -0.634715,0.28221 -0.997961,0.36417 -0.363236,0.082 -0.750478,0.13007 -1.162637,0.14718 -0.405825,0.0107 -0.857321,-0.009 -1.357497,-0.0538 -1.092629,-0.0859 -3.313476,-0.10725 -3.313476,-0.10725 -0.212355,0.005 -0.389886,-0.058 -0.532014,-0.19233 -0.135388,-0.14202 -0.196082,-0.37573 -0.181148,-0.70569 0.118169,-2.48105 0.263936,-5.05078 0.458993,-8.15166 0.171582,-2.72771 0.308314,-4.7613 0.308314,-4.7613 0.02133,-0.3186 0.108118,-0.53927 0.2605,-0.66217 0.159276,-0.12939 0.346382,-0.18205 0.560588,-0.15778 1.064636,0.1317 3.139242,0.56039 3.139242,0.56039 0.757532,0.18426 1.394552,0.44242 1.900545,0.73689 0.513834,0.29735 0.937541,0.65051 1.26813,1.04291 0.337889,0.38873 0.585644,0.82399 0.742691,1.3005 0.157293,0.47725 0.215208,0.99448 0.174024,1.55843 -0.02306,0.3158 -0.08244,0.60381 -0.178297,0.86516 -0.09539,0.25457 -0.223599,0.47652 -0.384927,0.66712 -0.161351,0.19063 -0.355437,0.34628 -0.582712,0.46862 -0.220977,0.12414 -0.471223,0.20849 -0.751278,0.25454 0.343297,0.15885 0.654547,0.36965 0.933274,0.62746 0.285081,0.25963 0.525938,0.56376 0.722409,0.90851 0.203321,0.33972 0.3567,0.7157 0.46045,1.12669 0.103802,0.41119 0.142529,0.84964 0.116699,1.31736 0,0 -1e-6,2e-5 -1e-6,2e-5 z m -2.846964,-6.67055 c 0.01981,-0.27383 -3.41e-4,-0.52808 -0.06055,-0.76403 -0.06017,-0.23581 -0.161262,-0.44331 -0.303238,-0.62174 -0.141362,-0.18523 -0.327071,-0.3464 -0.556605,-0.48021 -0.222559,-0.13188 -0.530065,-0.24418 -0.918906,-0.32536 -0.415709,-0.0757 -1.278027,-0.23405 -1.278027,-0.23405 -0.0752,1.19645 -0.255995,3.70344 -0.255995,3.70344 0.480717,0.0644 1.410911,0.19259 1.410911,0.19259 0.364135,0.0595 0.65663,0.0664 0.879808,0.0147 0.223433,-0.0589 0.410561,-0.15439 0.561877,-0.28839 0.158141,-0.13973 0.279786,-0.31039 0.365212,-0.51351 0.08591,-0.21017 0.137723,-0.43761 0.155509,-0.68344 z m 0.245021,6.13291 c 0.01864,-0.32867 -0.01188,-0.63034 -0.0919,-0.90547 -0.07954,-0.28229 -0.205938,-0.53047 -0.379347,-0.74277 -0.173275,-0.21213 -0.400328,-0.39411 -0.68057,-0.54109 -0.279627,-0.14664 -0.650822,-0.25889 -1.109708,-0.32311 -0.488903,-0.0567 -1.49704,-0.16805 -1.49704,-0.16805 -0.07771,1.40926 -0.23717,4.18493 -0.23717,4.18493 0.618764,0.0407 1.824868,0.14395 1.824868,0.14395 0.351817,0.039 0.647196,0.037 0.887611,-0.0105 0.24701,-0.054 0.46046,-0.14633 0.640871,-0.27921 0.187146,-0.13915 0.334673,-0.31958 0.443113,-0.5434 0.115175,-0.22992 0.181454,-0.50108 0.199275,-0.81524 z"
         style="font-style:normal;font-variant:normal;font-weight:bold;font-stretch:normal;font-size:19.7555542px;line-height:0;font-family:Calibri;-inkscape-font-specification:'Calibri Bold';fill:#ffffff;stroke-width:0.26458332"
         id="path3886"
         inkscape:connector-curvature="0"
         inkscape:original-d="m 40.726537,284.2614 q 0,0.66559 -0.183279,1.20578 -0.183279,0.54019 -0.511252,0.95498 -0.318327,0.41479 -0.771701,0.71383 -0.443728,0.29903 -0.983919,0.49195 -0.540191,0.19293 -1.157552,0.28939 -0.607715,0.0868 -1.360124,0.0868 h -3.318316 q -0.318326,0 -0.540191,-0.18328 -0.212217,-0.19293 -0.212217,-0.61736 V 276.3225 q 0,-0.42444 0.212217,-0.60771 0.221865,-0.19293 0.540191,-0.19293 h 3.135037 q 1.147906,0 1.9389,0.19293 0.80064,0.19292 1.340831,0.58842 0.549837,0.38585 0.839225,0.98392 0.289388,0.59807 0.289388,1.40835 0,0.45338 -0.115755,0.85852 -0.115756,0.3955 -0.33762,0.72347 -0.221864,0.32797 -0.549837,0.57878 -0.318327,0.2508 -0.733116,0.40514 0.530545,0.0965 0.974273,0.33762 0.453374,0.24115 0.781347,0.62701 0.33762,0.3762 0.530545,0.88745 0.192925,0.51125 0.192925,1.14791 z m -3.27973,-5.25722 q 0,-0.3762 -0.115755,-0.67524 -0.115756,-0.29903 -0.347266,-0.49196 -0.23151,-0.20257 -0.588422,-0.30868 -0.347266,-0.10611 -0.935688,-0.10611 h -1.282954 v 3.24115 h 1.418002 q 0.549837,0 0.87781,-0.1254 0.327973,-0.13505 0.540191,-0.35691 0.221864,-0.23151 0.327973,-0.53055 0.106109,-0.30868 0.106109,-0.6463 z m 0.6463,5.34403 q 0,-0.43408 -0.144694,-0.7717 -0.144694,-0.34726 -0.424436,-0.57877 -0.279742,-0.23151 -0.713824,-0.35692 -0.434082,-0.1254 -1.128613,-0.1254 h -1.504818 v 3.54983 h 1.832791 q 0.530545,0 0.887457,-0.10611 0.366558,-0.11575 0.627007,-0.32797 0.270095,-0.22187 0.414789,-0.54019 0.154341,-0.32798 0.154341,-0.74277 z" />
    </g>
  </g>
</svg>
